<svg id="Layer_1" xmlns="http://www.w3.org/2000/svg" viewBox="0 0 808 480"><style>.st15{fill:#fa6324}.st17{fill:#da9}.st18{fill:#d19d97}.st20{fill:#d83582}.st21{fill:#f90}.st22{fill:#f18b0e}.st23{fill:#fab538}.st24{fill:#eb3d7d}.st29{fill:#f7b1cb}.st32{fill:#c299d6}.st34{fill:#33a14a}</style><linearGradient id="SVGID_1_" gradientUnits="userSpaceOnUse" x1="409.288" y1="-208.794" x2="404.837" y2="371.343"><stop offset="0" stop-color="#a178b5"/><stop offset="1" stop-color="#c186e4" stop-opacity="0"/></linearGradient><path d="M120.2 363.2c-17.9-16.3-26.5-48.7-15.1-76.4 10.4-25.4 37-42.9 63.3-50.4 26.3-7.5 54.7-5.5 78.3-19.4 29.4-17.3 34-56.8 47.3-88.2 11.7-27.6 33.4-51.9 61.6-62.2 28.2-10.3 64.9-1.9 94.7 31.1 22.7 25.2 50.6 15.3 70.5 18.5 27.4 4.5 48.9 15 56.4 38.6s-6.5 57.9 10.1 76.2c21.1 23.2 55.1 26.3 72.3 34.7 40.1 19.7 55.4 59.5 49.7 87.9-9.6 48.2-54.6 55.7-72 53.4-56.4-7.4-65.3-37.8-95.7-49-30.4-11.1-100.9 27.4-162.5 30.4s-95.7-31.9-128.3-25.2c-32.7 6.7-89.1 37.8-130.6 0z" opacity=".5" fill="url(#SVGID_1_)"/><linearGradient id="SVGID_2_" gradientUnits="userSpaceOnUse" x1="617.611" y1="221.534" x2="592.388" y2="350.618"><stop offset="0" stop-color="#a178b5"/><stop offset="1" stop-color="#c186e4" stop-opacity="0"/></linearGradient><path d="M525 366.4c-3.2-6.2-3.6-13.7-1.1-20.2s8-11.7 14.5-14.1c9.6-3.4 21.1-.8 29.5-6.5 5.1-3.4 8-9.2 12.1-13.7 7.7-8.4 20.2-11.9 31.2-9s19.9 12.4 22.3 23.5c.9 4.1 1.1 8.8 4 11.8 1.9 2 4.7 2.9 7.1 4.2 9.1 4.7 14.9 15.1 14 25.3" opacity=".5" fill="url(#SVGID_2_)"/><linearGradient id="SVGID_3_" gradientUnits="userSpaceOnUse" x1="161.091" y1="167.398" x2="233.794" y2="354.347"><stop offset="0" stop-color="#a178b5"/><stop offset="1" stop-color="#c186e4" stop-opacity="0"/></linearGradient><path d="M166.2 371.2c-3.5-6.7-4-15-1.2-22.1s8.7-12.8 15.9-15.4c10.5-3.7 23-.9 32.2-7.1 5.5-3.7 8.7-10 13.2-15 8.4-9.1 22.1-13.1 34.1-9.8 12 3.3 21.7 13.6 24.4 25.7 1 4.5 1.2 9.6 4.4 12.9 2.1 2.2 5.1 3.2 7.8 4.6 9.9 5.1 16.3 16.5 15.3 27.6" opacity=".5" fill="url(#SVGID_3_)"/><linearGradient id="SVGID_4_" gradientUnits="userSpaceOnUse" x1="386.839" y1="-.291" x2="392.773" y2="330.58"><stop offset="0" stop-color="#a178b5"/><stop offset="1" stop-color="#c186e4" stop-opacity="0"/></linearGradient><path d="M205 340.6c-9.2-17.7-10.4-39.3-3.1-57.9 7.3-18.5 22.9-33.6 41.7-40.3 27.4-9.7 60.4-2.3 84.5-18.5 14.5-9.8 22.8-26.3 34.7-39.2 22.1-23.9 57.8-34.2 89.2-25.6 31.4 8.6 57 35.6 63.8 67.4 2.5 11.8 3.1 25.1 11.5 33.9 5.5 5.8 13.4 8.4 20.4 12 26 13.4 42.6 43.2 40.2 72.4" opacity=".5" fill="url(#SVGID_4_)"/><linearGradient id="SVGID_5_" gradientUnits="userSpaceOnUse" x1="451.747" y1="72.433" x2="451.747" y2="26.873"><stop offset=".007" stop-color="#f596b5" stop-opacity=".1"/><stop offset="1" stop-color="#f596b5" stop-opacity=".8"/></linearGradient><circle cx="451.7" cy="49.7" r="22.3" opacity=".87" fill="none" stroke="url(#SVGID_5_)" stroke-miterlimit="10"/><linearGradient id="SVGID_6_" gradientUnits="userSpaceOnUse" x1="375.52" y1="183.156" x2="375.52" y2="137.596"><stop offset=".007" stop-color="#f596b5" stop-opacity=".1"/><stop offset="1" stop-color="#f596b5" stop-opacity=".8"/></linearGradient><circle cx="375.5" cy="160.4" r="22.3" opacity=".87" fill="none" stroke="url(#SVGID_6_)" stroke-miterlimit="10"/><linearGradient id="SVGID_7_" gradientUnits="userSpaceOnUse" x1="255.59" y1="162.147" x2="255.59" y2="116.588"><stop offset=".007" stop-color="#f596b5" stop-opacity=".1"/><stop offset="1" stop-color="#f596b5" stop-opacity=".8"/></linearGradient><circle cx="255.6" cy="139.4" r="22.3" opacity=".87" fill="none" stroke="url(#SVGID_7_)" stroke-miterlimit="10"/><linearGradient id="SVGID_8_" gradientUnits="userSpaceOnUse" x1="209.858" y1="231.882" x2="209.858" y2="203.601"><stop offset=".007" stop-color="#f596b5" stop-opacity=".1"/><stop offset="1" stop-color="#f596b5" stop-opacity=".8"/></linearGradient><circle cx="209.9" cy="217.7" r="13.6" opacity=".87" fill="none" stroke="url(#SVGID_8_)" stroke-miterlimit="10"/><linearGradient id="SVGID_9_" gradientUnits="userSpaceOnUse" x1="243.062" y1="175.118" x2="243.062" y2="150.929"><stop offset=".007" stop-color="#f596b5" stop-opacity=".1"/><stop offset="1" stop-color="#f596b5" stop-opacity=".8"/></linearGradient><circle cx="243.1" cy="163" r="11.6" opacity=".87" fill="none" stroke="url(#SVGID_9_)" stroke-miterlimit="10"/><linearGradient id="SVGID_10_" gradientUnits="userSpaceOnUse" x1="315.217" y1="71.999" x2="315.217" y2="54.133"><stop offset=".007" stop-color="#f596b5" stop-opacity=".1"/><stop offset="1" stop-color="#f596b5" stop-opacity=".8"/></linearGradient><circle cx="315.2" cy="63.1" r="8.4" opacity=".87" fill="none" stroke="url(#SVGID_10_)" stroke-miterlimit="10"/><linearGradient id="SVGID_11_" gradientUnits="userSpaceOnUse" x1="269.036" y1="275.64" x2="269.036" y2="257.774"><stop offset=".007" stop-color="#f596b5" stop-opacity=".1"/><stop offset="1" stop-color="#f596b5" stop-opacity=".8"/></linearGradient><circle cx="269" cy="266.7" r="8.4" opacity=".87" fill="none" stroke="url(#SVGID_11_)" stroke-miterlimit="10"/><linearGradient id="SVGID_12_" gradientUnits="userSpaceOnUse" x1="385.721" y1="99.645" x2="385.721" y2="78.298"><stop offset=".007" stop-color="#f596b5" stop-opacity=".1"/><stop offset="1" stop-color="#f596b5" stop-opacity=".8"/></linearGradient><circle cx="385.7" cy="89" r="10.2" opacity=".87" fill="none" stroke="url(#SVGID_12_)" stroke-miterlimit="10"/><linearGradient id="SVGID_13_" gradientUnits="userSpaceOnUse" x1="592.926" y1="100.368" x2="592.926" y2="85.097"><stop offset=".007" stop-color="#f596b5" stop-opacity=".1"/><stop offset="1" stop-color="#f596b5" stop-opacity=".8"/></linearGradient><circle cx="592.9" cy="92.7" r="7.1" opacity=".87" fill="none" stroke="url(#SVGID_13_)" stroke-miterlimit="10"/><linearGradient id="SVGID_14_" gradientUnits="userSpaceOnUse" x1="508.591" y1="158.786" x2="508.591" y2="131.55"><stop offset=".007" stop-color="#f596b5" stop-opacity=".1"/><stop offset="1" stop-color="#f596b5" stop-opacity=".8"/></linearGradient><circle cx="508.6" cy="145.2" r="13.1" opacity=".87" fill="none" stroke="url(#SVGID_14_)" stroke-miterlimit="10"/><linearGradient id="SVGID_15_" gradientUnits="userSpaceOnUse" x1="575.302" y1="265.57" x2="575.302" y2="225.183"><stop offset=".007" stop-color="#f596b5" stop-opacity=".1"/><stop offset="1" stop-color="#f596b5" stop-opacity=".8"/></linearGradient><circle cx="575.3" cy="245.4" r="19.7" opacity=".87" fill="none" stroke="url(#SVGID_15_)" stroke-miterlimit="10"/><path class="st15" d="M440.3 176.8c-4.8-10.8-1.1-21.9-8.9-33-7.6-10.8-23.5-8.5-26.6-1.4-5.3-.2-12.1 2.5-15.1 13.5-3.2 11.7.2 20.4-13.4 27.4-12.9 6.7-9.8 16.1-8.3 19.3 1.5 3.2.9 2.6-3.2 9.6-4.1 7 2 12.2 5.7 12.4 3.3.2 6.5-3.5 19.5-1.7 12.7 1.8 12.5-5.9 29.2-8.3 8.9-1.2 7.6-8.4 14.5-9.6 6.1-1.1 10.4-6.2 10.9-12.2.6-5.1-2-11-4.3-16z"/><path d="M433.4 170.3l-31 7.2c3.6 8.5-2.7 13.4-6.7 15.3s-7.9 2.7-8.2 6.7c-.2 4 .2 7.4-2.7 8.4-3 1-11.7 4.8-10.6 9.9 1 4.6 8.4 3.5 11.9 3.5s11.4 3 20.3-3.5c9.1-6.6 12.9-5.1 18.5-7.3 4.5-1.7 7.5-6.4 6.7-9.9-.9-3.5 2-4.8 3.6-9.1 1.5-4.4-.5-14.1-1.8-21.2z" fill="#ea522f"/><path class="st17" d="M386.5 210.9c-10.7 1.8-36.5 50.8-36.5 50.8s-2.7-8.5-26.5-31c-4.7-4.4-12.1-11.8-13.8-13.7-1.7-1.9-6.1-7.2-8-8.6-2-1.4-8.3-6.1-9.3-8-1-1.8-1.5-.4-1.5.4v.3c-.3-.1-.9.5-1.7.7-1.8.5-3.8 3.4-4.7 4.7-.9 1.3-.3 4.3-.3 4.3s-2.6-1-2.8-2.1c-.2-1.1-1.7-1.4-1.8-.5-.2.8.3 2.8.3 2.8s-.5.1-1.5-.5c-1-.5-3.1-2.6-3.7-2.2-.6.4.3 2.9 1.7 4.3s5 4.2 7 4.5c2.1.3 13.5 1.1 16.7 2.6 2.1.9 7.8 4.6 15.4 16.3 3 4.6 25.4 45 35.9 45 2.5 0 16.2-10.5 33-38.3 8.7-14.4 10.5-20.6 9.8-26-.6-4.1-4.1-6.4-7.7-5.8zm-91.4-.8c-.6.4-2.4-.8-4.1-.2-1.6.6-3.1-.4-3.3-2-.2-1.6 3.1-3.9 3.2-5.7v-.3c.4 1.2 1.2 3.1 2.5 4.1 1.7 1.4 2.3 3.7 1.7 4.1z"/><path class="st18" d="M347.9 280.1c1.2.7 2.3 1.1 3.4 1.1 2.5 0 16.2-10.5 33-38.3.4-.7.8-1.4 1.3-2.1l-3.2-.7s-20.4 30.3-26.8 36.2c-4.1 3.6-6.4 4-7.7 3.8z"/><path class="st17" d="M435.8 216.9c-.7 5.4 1.1 11.5 9.8 26 16.8 27.8 30.5 38.3 33 38.3 10.5 0 32.9-40.5 35.9-45 7.6-11.7 13.3-15.4 15.4-16.3 3.2-1.5 14.7-2.3 16.7-2.6 2.1-.3 5.7-3.1 7-4.5 1.4-1.4 2.3-3.9 1.7-4.3-.6-.4-2.8 1.7-3.7 2.2-1 .5-1.5.5-1.5.5s.5-1.9.3-2.8c-.2-.8-1.6-.5-1.8.5-.2 1.1-2.8 2.1-2.8 2.1s.6-3-.3-4.3c-.9-1.3-2.9-4.2-4.7-4.7-.8-.2-1.4-.8-1.7-.7v-.3c0-.8-.5-2.2-1.5-.4-1 1.8-7.2 6.5-9.3 8-2 1.4-6.4 6.8-8 8.6-1.7 1.9-9.1 9.3-13.8 13.7-23.8 22.4-26.5 31-26.5 31s-25.8-49-36.5-50.8c-3.7-.8-7.1 1.5-7.7 5.8zM536.5 206c1.2-1.1 2.1-2.9 2.5-4.1v.3c.2 1.8 3.4 4.1 3.2 5.7s-1.6 2.7-3.3 2c-1.6-.6-3.5.6-4.1.2-.6-.4 0-2.7 1.7-4.1z"/><path class="st18" d="M446.7 239.3l-2.4 1.4c.4.7.8 1.4 1.3 2.1 12 19.8 22.4 30.8 28.3 35.5-9.8-8.6-23.9-34.9-27.2-39z"/><ellipse cx="417.2" cy="439.2" rx="158.8" ry="14" opacity=".15" fill="#14001f"/><path class="st20" d="M555.5 342.5c-18.3-18.3-59.4-23.4-70.7-25.9-11.4-2.5-24.9-6.7-27.8-10.5-2.8-3.8-78.8-4.2-81.7-.4-2.8 3.8-12.2 5.1-24.8 9.7-10.9 4-56.4 8.9-74.7 27.2-18.3 18.3-5.1 46.7 33.5 45.5 36.3-1.2 99.6-19.3 106.9-23 7.2 3.7 69.7 21.8 106 23 38.3 1.1 51.6-27.3 33.3-45.6z"/><path class="st17" d="M362.8 371.9c-9.2 7-12.8 8.9-20.2 10.8-19.8 5.1-27.4 20.7-22.7 29.1 2.3 4.1 14.4-10.5 38.5-22.4 2.7-1.3 6.1-2.1 9.1-3.2 1.2-6.1-1-11.5-4.7-14.3z"/><path class="st18" d="M358.3 389.4c2.6-1.3 5.8-2.1 8.7-3.1l-8.3-11.5c-6.4 4.6-10 6.2-16.3 7.8-3.6.9-6.8 2.2-9.6 3.7 3.9 1.1 5 2.9 5.4 4.3.7 2.8-.6 7-8.7 14.2-6.1 5.4-8.5 7-9.9 6.7 0 .1.1.1.1.2.1.1.2.2.2.3 3 2.9 15.1-11.1 38.4-22.6z"/><path class="st21" d="M474.1 313.1s-2.5-.6-7.1-2.2c-4.4-1.6-6.1-3-9.1-6.3s-9.6-6.5-15.5-15.8-1.6-24.1.3-34.3c1.9-10.2 1.5-13.7 1.5-13.7s3-.4 10-3.7c7-3.3 8.7-6.7 8.7-7.4 0-.7-1.5-.9-6.7-8.2s-8-12.7-16.2-14.8c-8.2-2-15.3-3.2-18.5-3.5h-10.6c-3.2.4-12.9 1.7-21.1 3.8s-10.8 6.7-16 14c-5.2 7.2-7.4 8.7-7.4 9.4 0 .7 2.3 4.3 9.4 7.7 7 3.3 9.9 2.7 9.9 2.7s-.4 3.5 1.5 13.7 6.2 25.6.3 34.8c-5.9 9.3-12.5 11.9-15.5 15.2-3 3.3-5.7 2.2-10 5.6s-6.1 3-6.1 3 3 1.9 16.1 6.3c30.8 10.4 74 3.3 85.9 0 13.4-3.7 16.2-6.3 16.2-6.3z"/><g><path class="st17" d="M430.6 186.6c1.5-1.4 3.1-6.7 3-12.6-.1-8.5-3.8-16.5-7.1-21.4-5.6-8.2-16.3-10.7-25.2-2.5-3.3 3.1-4 7.1-1.2 18.1-1.6-.3-3 .1-3.5 1-1.1 1.8.4 5.5 2.3 7.6 4.3 4.9 7 5.1 7 3.3.7.8 3.1 4.7 3.5 21.1 0 1-.1 1.5-.3 1.9-.6 1-1.8.8-4.1 2.5-1.6 1.1-2.3 2.8-2.3 3.9 0 5.4 6 9.7 13.4 9.7s13.4-4.2 13.4-9.7c0-.5.1-3.1-3-4.7-2-1-3.6-1-3.9-1.8-1.6-4.5-2.7-9.3-1.6-11.3 1.5-2.4 6.7-2.5 9.6-5.1z"/><path class="st18" d="M409.8 150.9s.7 2.5-1 6.1-6.3 8.7-5.3 12.7c0 0-1.6-3 .5-8.7 2.1-5.6 5.8-10.1 5.8-10.1zM409.8 150.9c2 2.3 2.5 2.5 9.1 3 6.7.5 9.6 3.6 11.5 5.8 0 0-1.1-3.3-5.2-7.2-4.1-3.8-15.4-1.6-15.4-1.6z"/><path class="st15" d="M427 142.2c-6.5-8.2-19.6-3.4-20 .7v.2c-.5-.1-1.2-.1-2-.1-4 0-13.2 2.5-8.2 20 .6 2.2 2.4 4.6 4.5 7.3 1.3 1.6 2.2 2.7 3.7 3.4.6.3.3-1.4-.3-2.7-.7-1.7-1.7-3.4.1-8.2 2-5.4 4.5-6.9 5-11.8 3.3 1.1 8.8-.9 13.8 1.9 7 3.9 9 11.5 9 11.5s.9-14-5.6-22.2z"/><path class="st18" d="M419.6 188.9c-1.7 0-3 2-1.3 4.8 1.2 2.1 2.3 3.9 3.9 7.5-1.2-4.1-2-7.9-1-9.6 1.4-2.3 6.6-2.4 9.4-5.1-1.7 1.4-3.9 2.4-11 2.4z"/></g><path class="st22" d="M444.2 240.8c.1 0 1-.1 3-.8l-6.8-10.2 3.8 11zM385.8 240.8l3.5-11-7.1 10.6c2.5.6 3.6.4 3.6.4z"/><g><path class="st23" d="M372.9 222.4l.9 1.2c.2.2.4.3.6.3.2 0 .3-.1.5-.2.3-.3.4-.8.1-1.1l-1.2-1.5c-.3.5-.6.9-.9 1.3zM390.9 232.5h-.2c-.4-.1-.7-.6-.6-1l1.1-4c.1-.4.6-.7 1-.6.4.1.7.6.6 1l-1.1 4c-.1.4-.4.6-.8.6zM380.7 215.4c-.3 0-.6-.2-.8-.6-.1-.4.1-.9.5-1l3.3-1.1c.4-.1.9.1 1 .5.1.4-.1.9-.5 1l-3.3 1.1c0 .1-.1.1-.2.1zM386.3 225.4h-.3l-3.2-1.1c-.4-.1-.6-.6-.5-1 .1-.4.6-.6 1-.5l3.2 1.1c.4.1.6.6.5 1-.1.3-.4.5-.7.5zM380 236.9l-1.4 2.4 1.5.6 1.3-2.2c.2-.4.1-.9-.3-1.1-.4-.3-.8-.1-1.1.3zM372.1 231.3c-.3 0-.6-.2-.7-.5-.2-.4 0-.9.4-1l2.8-1.1c.4-.2.9 0 1 .5.2.4 0 .9-.4 1l-2.8 1.1h-.3zM391.6 211.8c0-.1.1-.3.2-.4.3-.3.8-.4 1.1-.1l2.8 2.3c.3.3.4.8.1 1.1-.3.3-.8.4-1.1.1l-2.8-2.3c-.3-.1-.4-.4-.3-.7zM398.9 207.6c.1.1.3.1.4.1.3 0 .5-.1.7-.4l1.5-2.6c-.7.1-1.4.2-2 .4l-.9 1.5c-.2.3-.1.8.3 1zM423.9 254.4c-.2 0-.5-.1-.6-.3l-2.4-3.1c-.3-.3-.2-.8.1-1.1.3-.3.8-.2 1.1.1l2.4 3.1c.3.3.2.8-.1 1.1-.1.2-.3.2-.5.2zM419.5 294.5c-.2 0-.5-.1-.6-.3l-2.4-3.1c-.3-.3-.2-.8.1-1.1.3-.3.8-.2 1.1.1l2.4 3.1c.3.3.2.8-.1 1.1-.2.1-.3.2-.5.2zM398.8 247.8c-.3 0-.6-.2-.8-.6-.1-.4.1-.9.5-1l3.3-1.1c.4-.1.9.1 1 .5.1.4-.1.9-.5 1l-3.3 1.1c-.1.1-.1.1-.2.1zM404.3 257.8h-.3l-3.2-1.1c-.4-.1-.6-.6-.5-1 .1-.4.6-.6 1-.5l3.2 1.1c.4.1.6.6.5 1 0 .3-.3.5-.7.5zM408 230.5c-.2 0-.5-.1-.6-.3l-2.4-3.1c-.3-.3-.2-.8.1-1.1.3-.3.8-.2 1.1.1l2.4 3.1c.3.3.2.8-.1 1.1-.1.2-.3.2-.5.2zM424.9 241h-.2c-.4-.1-.7-.6-.6-1l1.1-4c.1-.4.6-.7 1-.6.4.1.7.6.6 1l-1.1 4c-.1.3-.5.6-.8.6zM414.7 223.9c-.3 0-.6-.2-.8-.6-.1-.4.1-.9.5-1l3.3-1.1c.4-.1.9.1 1 .5.1.4-.1.9-.5 1l-3.3 1.1c0 .1-.1.1-.2.1zM420.3 233.9h-.3l-3.2-1.1c-.4-.1-.6-.6-.5-1 .1-.4.6-.6 1-.5l3.2 1.1c.4.1.6.6.5 1-.1.3-.4.5-.7.5zM412.9 248.6c-.1 0-.3 0-.4-.1-.4-.2-.5-.7-.3-1.1l1.8-3.2c.2-.4.7-.5 1.1-.3.4.2.5.7.3 1.1l-1.8 3.2c-.2.2-.5.4-.7.4zM406.1 239.8c-.3 0-.6-.2-.7-.5-.2-.4 0-.9.5-1l2.8-1.1c.4-.2.9 0 1 .5.2.4 0 .9-.5 1l-2.8 1.1h-.3zM428.8 224.7c-.1 0-.3 0-.4-.1-.4-.2-.5-.7-.3-1.1l1.8-3.2c.2-.4.7-.5 1.1-.3.4.2.5.7.3 1.1l-1.8 3.2c-.2.3-.5.4-.7.4zM449.3 225.6c-.3 0-.6-.2-.7-.5-.2-.4 0-.9.5-1l2.8-1.1c.4-.2.9 0 1 .5.2.4 0 .9-.5 1l-2.8 1.1h-.3zM458.1 228.9h.2c.4 0 .7-.2.8-.6l.6-2.4c-.4-.4-.8-.9-1.2-1.5l-.9 3.5c-.2.5.1.9.5 1zM398.2 223.2c-.1 0-.3 0-.4-.1-.4-.2-.5-.7-.3-1.1l1.8-3.2c.2-.4.7-.5 1.1-.3.4.2.5.7.3 1.1l-1.8 3.2c-.2.3-.5.4-.7.4zM398.9 273.6c-.2 0-.5-.1-.6-.3l-2.4-3.1c-.3-.3-.2-.8.1-1.1.3-.3.8-.2 1.1.1l2.4 3.1c.3.3.2.8-.1 1.1-.1.2-.3.2-.5.2zM415.8 284h-.2c-.4-.1-.7-.6-.6-1l1.1-4c.1-.4.6-.7 1-.6.4.1.7.6.6 1l-1.1 4c-.1.4-.5.6-.8.6zM405.6 267c-.3 0-.6-.2-.8-.6-.1-.4.1-.9.5-1l3.3-1.1c.4-.1.9.1 1 .5.1.4-.1.9-.5 1l-3.3 1.1c0 .1-.1.1-.2.1zM411.2 277h-.3l-3.2-1.1c-.4-.1-.6-.6-.5-1 .1-.4.6-.6 1-.5l3.2 1.1c.4.1.6.6.5 1-.1.3-.4.5-.7.5zM403.7 291.7c-.1 0-.3 0-.4-.1-.4-.2-.5-.7-.3-1.1l1.8-3.2c.2-.4.7-.5 1.1-.3.4.2.5.7.3 1.1l-1.8 3.2c-.1.2-.4.4-.7.4zM397 282.9c-.3 0-.6-.2-.7-.5-.2-.4 0-.9.4-1l2.8-1.1c.4-.2.9 0 1 .5.2.4 0 .9-.4 1l-2.8 1.1h-.3zM419.7 267.8c-.1 0-.3 0-.4-.1-.4-.2-.5-.7-.3-1.1l1.8-3.2c.2-.4.7-.5 1.1-.3.4.2.5.7.3 1.1l-1.8 3.2c-.2.2-.5.4-.7.4zM412.9 259c-.3 0-.6-.2-.7-.5-.2-.4 0-.9.4-1l2.8-1.1c.4-.2.9 0 1 .5.2.4 0 .9-.4 1l-2.8 1.1h-.3zM395 252.2c-.2 0-.5-.1-.6-.3l-2.4-3.1c-.3-.3-.2-.8.1-1.1.3-.3.8-.2 1.1.1l2.4 3.1c.3.3.2.8-.1 1.1-.2.1-.3.2-.5.2zM388.4 243.8c-.1 0-.3 0-.4-.1-.4-.2-.5-.7-.3-1.1l1.8-3.2c.2-.4.7-.5 1.1-.3.4.2.5.7.3 1.1l-1.8 3.2c-.2.2-.5.4-.7.4zM390.7 265.6c-.1 0-.3 0-.4-.1-.4-.2-.5-.7-.3-1.1l1.8-3.2c.2-.4.7-.5 1.1-.3.4.2.5.7.3 1.1l-1.8 3.2c-.1.2-.4.4-.7.4zM388.8 253.8l-1.5.6v.1c.1.5.2 1 .3 1.4l1.8-.7c.4-.2.6-.6.4-1-.2-.4-.6-.6-1-.4zM448.8 306c-.2 0-.5-.1-.6-.3l-2.4-3.1c-.3-.3-.2-.8.1-1.1.3-.3.8-.2 1.1.1l2.4 3.1c.3.3.2.8-.1 1.1-.2.1-.3.2-.5.2zM423.6 299.4c-.3 0-.6-.2-.8-.6-.1-.4.1-.9.5-1l3.3-1.1c.4-.1.9.1 1 .5s-.1.9-.5 1l-3.3 1.1s-.1.1-.2.1zM429.2 309.4h-.3l-3.2-1.1c-.4-.1-.6-.6-.5-1 .1-.4.6-.6 1-.5l3.2 1.1c.4.1.6.6.5 1-.1.3-.4.5-.7.5zM427.7 285.4c-.2 0-.5-.1-.6-.3l-2.4-3.1c-.3-.3-.2-.8.1-1.1.3-.3.8-.2 1.1.1l2.4 3.1c.3.3.2.8-.1 1.1-.2.2-.4.2-.5.2zM442 228.7h-.2c-.4-.1-.7-.6-.6-1l1.1-4c.1-.4.6-.7 1-.6.4.1.7.6.6 1l-1.1 4c-.2.4-.5.6-.8.6zM431.9 231.9c-.3 0-.6-.2-.8-.6-.1-.4.1-.9.5-1l3.3-1.1c.4-.1.9.1 1 .5.1.4-.1.9-.5 1l-3.3 1.1c0 .1-.1.1-.2.1zM432.1 209.1c-.3 0-.6-.2-.8-.6-.1-.4.1-.9.5-1l3.3-1.1c.4-.1.9.1 1 .5.1.4-.1.9-.5 1l-3.3 1.1c0 .1-.1.1-.2.1zM437.7 219.1h-.3l-3.2-1.1c-.4-.1-.6-.6-.5-1 .1-.4.6-.6 1-.5l3.2 1.1c.4.1.6.6.5 1-.1.3-.4.5-.7.5zM445.1 208.8l-1.1 1.9c-.2.4-.1.9.3 1.1.1.1.3.1.4.1.3 0 .5-.1.7-.4l1-1.8c-.4-.4-.8-.7-1.3-.9zM450.9 238.6l.7-2.6c.1-.4-.1-.9-.6-1-.4-.1-.9.1-1 .6l-1 3.8c.6-.3 1.2-.5 1.9-.8zM448.6 216.5c.1.3.4.6.8.6h.2l2.8-.9c-.3-.5-.7-.9-1-1.3l-2.3.7c-.4 0-.6.5-.5.9zM437.3 242.5h-.3l-3.2-1.1c-.4-.1-.6-.6-.5-1 .1-.4.6-.6 1-.5l3.2 1.1c.4.1.6.6.5 1 0 .3-.3.5-.7.5zM437.7 300.1c-.1 0-.3 0-.4-.1-.4-.2-.5-.7-.3-1.1l1.8-3.2c.2-.4.7-.5 1.1-.3.4.2.5.7.3 1.1l-1.8 3.2c-.2.3-.4.4-.7.4zM432.3 290.5c-.3 0-.6-.2-.7-.5-.2-.4 0-.9.5-1l2.8-1.1c.4-.2.9 0 1 .5.2.4 0 .9-.5 1l-2.8 1.1c-.1-.1-.2 0-.3 0zM437.6 279.5c.1 0 .2 0 .3-.1l1.6-.6c0-.6-.1-1.1-.1-1.7l-2.1.8c-.4.2-.6.6-.5 1 .2.4.5.6.8.6zM436.9 258.1c-.1 0-.3 0-.4-.1-.4-.2-.5-.7-.3-1.1l1.8-3.2c.2-.4.7-.5 1.1-.3.4.2.5.7.3 1.1l-1.8 3.2c-.1.3-.4.4-.7.4zM430.2 249.3c-.3 0-.6-.2-.7-.5-.2-.4 0-.9.5-1l2.8-1.1c.4-.2.9 0 1 .5.2.4 0 .9-.5 1l-2.8 1.1h-.3zM434.2 271.3h-.2c-.4-.1-.7-.6-.6-1l1.1-4c.1-.4.6-.7 1-.6.4.1.7.6.6 1l-1.1 4c-.1.3-.4.6-.8.6zM423.7 275.1c-.1 0-.3 0-.4-.1-.4-.2-.5-.7-.3-1.1l1.8-3.2c.2-.4.7-.5 1.1-.3.4.2.5.7.3 1.1l-1.8 3.2c-.2.3-.4.4-.7.4zM394.7 321.4c-.3-.3-.8-.4-1.1-.1-.3.3-.4.8-.1 1.1l1.4 1.7c.7.1 1.5.1 2.2.2l-2.4-2.9zM376.4 304.1c.2.2.4.3.6.3.2 0 .3-.1.5-.2.3-.3.4-.8.1-1.1l-1.5-1.9c-.4.3-.9.6-1.3 1l1.6 1.9zM390.9 313h-.2c-.4-.1-.7-.6-.6-1l1.1-4c.1-.4.6-.7 1-.6.4.1.7.6.6 1l-1.1 4c-.1.3-.4.6-.8.6zM388 289l3.3-1.1c.4-.1.6-.6.5-1-.1-.4-.6-.6-1-.5l-2.1.7c-.3.7-.6 1.3-1 1.9h.3zM386.3 305.9h-.3l-3.2-1.1c-.4-.1-.6-.6-.5-1 .1-.4.6-.6 1-.5l3.2 1.1c.4.1.6.6.5 1-.1.3-.4.5-.7.5zM378.9 320.6c-.1 0-.3 0-.4-.1-.4-.2-.5-.7-.3-1.1l1.8-3.2c.2-.4.7-.5 1.1-.3.4.2.5.7.3 1.1l-1.8 3.2c-.2.2-.4.4-.7.4zM372.1 311.8c-.3 0-.6-.2-.7-.5-.2-.4 0-.9.4-1l2.8-1.1c.4-.2.9 0 1 .5.2.4 0 .9-.4 1l-2.8 1.1h-.3zM461.8 314.6c-.3-.3-.8-.4-1.1-.1-.3.3-.4.8-.1 1.1l2 2.5c.6-.2 1.1-.4 1.6-.5l-2.4-3zM454.7 303c.2.2.4.3.6.3.2 0 .3-.1.5-.2.1-.1.2-.2.2-.3-1.1-.9-2.5-2-3.9-3.2 0 .1.1.2.1.3l2.5 3.1zM469.7 314.8h.2c.4 0 .7-.2.8-.6l.5-1.9c-.5-.1-1-.3-1.5-.5l-.5 2c-.1.5.1.9.5 1zM451.6 319.3c-.4-.1-.9.1-1 .5-.1.4.1.9.5 1l.4.1c1.1-.2 2.1-.4 3-.7l-2.9-.9zM439.4 320.6c-.1 0-.3 0-.4-.1-.4-.2-.5-.7-.3-1.1l1.8-3.2c.2-.4.7-.5 1.1-.3.4.2.5.7.3 1.1l-1.8 3.2c-.2.2-.5.4-.7.4zM454.1 312.2c-.3 0-.6-.2-.7-.5-.2-.4 0-.9.4-1l2.8-1.1c.4-.2.9 0 1 .5.2.4 0 .9-.4 1l-2.8 1.1h-.3zM391.8 297.8c-.1 0-.3 0-.4-.1-.4-.2-.5-.7-.3-1.1l1.8-3.2c.2-.4.7-.5 1.1-.3.4.2.5.7.3 1.1l-1.8 3.2c-.1.3-.4.4-.7.4zM434.4 312.3c-.1 0-.3 0-.4-.1-.4-.2-.5-.7-.3-1.1l1.8-3.2c.2-.4.7-.5 1.1-.3.4.2.5.7.3 1.1l-1.8 3.2c-.2.3-.5.4-.7.4zM364.9 316.9l1.1-1.9c.2-.4.1-.9-.3-1.1-.4-.2-.9-.1-1.1.3l-1.2 2.1 1.5.6zM433 323.7l.6-1.1c.2-.4.1-.9-.3-1.1-.4-.2-.9-.1-1.1.3l-1.2 2.1c.7-.1 1.3-.1 2-.2zM428.6 317.7c-.2 0-.5-.1-.6-.3l-2.4-3.1c-.3-.3-.2-.8.1-1.1.3-.3.8-.2 1.1.1l2.4 3.1c.3.3.2.8-.1 1.1-.2.2-.4.2-.5.2zM443.2 311.3c-.3 0-.6-.2-.8-.6-.1-.4.1-.9.5-1l3.3-1.1c.4-.1.9.1 1 .5.1.4-.1.9-.5 1l-3.3 1.1c-.1.1-.1.1-.2.1zM419.3 322.8h-.3l-3.2-1.1c-.4-.1-.6-.6-.5-1 .1-.4.6-.6 1-.5l3.2 1.1c.4.1.6.6.5 1-.1.3-.4.5-.7.5zM402.8 314.4c-.2 0-.5-.1-.6-.3l-2.4-3.1c-.3-.3-.2-.8.1-1.1.3-.3.8-.2 1.1.1l2.4 3.1c.3.3.2.8-.1 1.1-.1.1-.3.2-.5.2zM417.3 316.1c-.1 0-.3 0-.4-.1-.4-.2-.5-.7-.3-1.1l1.8-3.2c.2-.4.7-.5 1.1-.3.4.2.5.7.3 1.1l-1.8 3.2c-.2.3-.4.4-.7.4zM406.1 320.3c-.3 0-.6-.2-.7-.5-.2-.4 0-.9.5-1l2.8-1.1c.4-.2.9 0 1 .5.2.4 0 .9-.5 1l-2.8 1.1h-.3zM412.8 308.4c-.3 0-.6-.2-.7-.5-.2-.4 0-.9.5-1l2.8-1.1c.4-.2.9 0 1 .5.2.4 0 .9-.5 1l-2.8 1.1h-.3zM409.3 300.2h-.2c-.4-.1-.7-.6-.6-1l1.1-4c.1-.4.6-.7 1-.6.4.1.7.6.6 1l-1.1 4c-.1.4-.4.6-.8.6zM398.8 304.1c-.1 0-.3 0-.4-.1-.4-.2-.5-.7-.3-1.1l1.8-3.2c.2-.4.7-.5 1.1-.3.4.2.5.7.3 1.1l-1.8 3.2c-.1.2-.4.4-.7.4z"/></g><path class="st20" d="M524.3 331.1c-59.8-4.8-113.1 14.7-149.2 34-7.3 3.9-12.5 7-16.5 9.5 3.1 3.3 4.7 7.7 3.9 13.3 53.9-12.7 151.1 13.6 184.5-3.4 35.4-18.1 17.8-50.1-22.7-53.4z"/><path class="st24" d="M524.3 330.8c-59.8-4.8-113.1 14.7-149.2 34-7.4 4-12.7 7.1-16.8 9.6 2.1 2.2 3.7 5.2 4.2 8.7 4.5-2.8 10.6-6.6 20.6-12 25-13.4 58.2-26.8 96.1-32.3 6.7-1 13.3-2.2 19.8-3.9 10.5-2.7 21.6-3.8 32.4-3.3-2.2-.3-4.6-.6-7.1-.8z"/><path class="st17" d="M478.8 390.9c25.3 9.3 38.2 23.2 40 18.9 3.8-8.8-5.5-23.6-25.7-26.5-7.3-1.1-11.1-3.7-20-9.2-1 1.1-3 3.1-4.9 7.7-.9 2.2-.5 4.5-.8 5.8 4.1.9 7.9 2 11.4 3.3z"/><path class="st18" d="M475.8 389.9c1 .3 2.1.7 3.1 1 25.3 9.3 38.2 23.2 40 18.9.2-.5.4-1 .5-1.5-.3.7-.8 1.3-1.6 1.5-2.3.5-12.9-12.2-24.9-15.7-6.9-2-13.1-3.4-17.1-4.2z"/><g><path class="st24" d="M468.6 382.5c1.7-5.6 3.4-6.6 4.6-8.4-4-2.5-9.2-5.5-16.3-9.3-36.1-19.3-90.3-38.8-150.1-34-40.5 3.3-58 35.3-22.6 53.4 33 16.9 129.3-8.2 183.6 3.6.1-1.5.2-3.4.8-5.3z"/></g><g><path d="M272 287.5c-.1 0-.1.1-.2.1-2.4 1.3-6.1 1-7.9.6-1.9-.4-7.5-1.3-18.3-7.5l-12.9-8.4c-2.4-1.6-5-2.9-7.6-3.9 0 0-10.3-4.2-12.3-5.4l-1.5-.9c-2-1.2-3.3-3.5-3.4-6-.2-5.8 1.7-11.2 5.2-14.9.3-.3.6-.5.9-.7.6-.4 1.4-.6 2.1-.7-2.9 0-7.4 4.3-9 7.7-2.4 4.9-3.8 11.6 1.1 16.5 5 4.9 17.6 4.4 27.7 13.3 9.4 8.3 18.6 14.1 28 13.3 7.7-.7 10.1-3.8 10.4-6.5v-.1c-.4 1.5-1.2 2.7-2.3 3.5z" fill="#06c"/><path d="M213.9 240.5c-.3.2-.6.4-.9.7-3.5 3.7-5.4 9.1-5.2 14.9.1 2.4 1.4 4.8 3.4 6l1.5.9c2.1 1.2 12.3 5.4 12.3 5.4 2.6 1 5.2 2.3 7.6 3.9l12.9 8.4c10.8 6.1 16.4 7.1 18.3 7.5 1.9.4 5.6.7 7.9-.6.1 0 .1-.1.2-.1 2-1.3 2.9-4 2.2-6.7-.8-3.1-3.5-6.6-4.9-7.9-1.4-1.3-5.4-6-16.6-12.3l-13.5-6.6c-2.6-1.3-5-2.8-7.4-4.6 0 0-9.3-6.9-11.4-8l-1.5-.8c-1.7-1-3.5-1-4.9-.1" fill="#3385d6"/><path d="M260.7 283.7c-.3.2-.7.2-1 0-.6-.3-.9-1.3-.6-2.1.1-.4.3-.6.6-.8.3-.2.7-.2 1 0 .6.3.9 1.3.6 2.1-.1.3-.4.6-.6.8m1.6-4.5c-.3.2-.7.2-1 0-.6-.3-.9-1.3-.6-2.1.1-.4.3-.6.6-.8.3-.2.7-.2 1 0 .6.3.9 1.3.6 2.1-.2.4-.4.6-.6.8m-5.7 2.1c-.3.2-.7.2-1 0-.6-.3-.9-1.3-.6-2.1.1-.4.3-.6.6-.8.3-.2.7-.2 1 0 .6.3.9 1.3.6 2.1-.2.4-.4.7-.6.8m7.2-6.6c-.3.2-.7.2-1 0-.6-.3-.9-1.3-.6-2.1.1-.4.3-.6.6-.8.3-.2.7-.2 1 0 .6.3.9 1.3.6 2.1-.1.4-.3.7-.6.8m-5.7 2.2c-.3.2-.7.2-1 0-.6-.3-.9-1.3-.6-2.1.1-.4.3-.6.6-.8.3-.2.7-.2 1 0 .6.3.9 1.3.6 2.1-.1.3-.3.6-.6.8m-5.7 2.1c-.3.2-.7.2-1 0-.6-.3-.9-1.3-.6-2.1.1-.4.3-.6.6-.8.3-.2.7-.2 1 0 .6.3.9 1.3.6 2.1-.1.3-.3.6-.6.8m7.3-6.6c-.3.2-.7.2-1 0-.6-.3-.9-1.3-.6-2.1.1-.4.3-.6.6-.8.3-.2.7-.2 1 0 .6.3.9 1.3.6 2.1-.2.4-.4.6-.6.8m-5.7 2.1c-.3.2-.7.2-1 0-.6-.3-.9-1.3-.6-2.1.1-.4.3-.6.6-.8.3-.2.7-.2 1 0 .6.3.9 1.3.6 2.1-.2.4-.4.7-.6.8m-5.7 2.1c-.3.2-.7.2-1 0-.6-.3-.9-1.3-.6-2.1.1-.4.3-.6.6-.8.3-.2.7-.2 1 0 .6.3.9 1.3.6 2.1-.2.4-.4.7-.6.8m7.2-6.5c-.3.2-.7.2-1 0-.6-.3-.9-1.3-.6-2.1.1-.4.3-.6.6-.8.3-.2.7-.2 1 0 .6.3.9 1.3.6 2.1-.1.3-.3.6-.6.8m-5.7 2.1c-.3.2-.7.2-1 0-.6-.3-.9-1.3-.6-2.1.1-.4.3-.6.6-.8.3-.2.7-.2 1 0 .6.3.9 1.3.6 2.1-.1.3-.3.6-.6.8m1.6-4.5c-.3.2-.7.2-1 0-.6-.3-.9-1.3-.6-2.1.1-.4.3-.6.6-.8.3-.2.7-.2 1 0 .6.3.9 1.3.6 2.1-.1.4-.3.6-.6.8m-22.9-2.3c-.3.2-.7.2-1 0-.6-.3-.9-1.3-.6-2.1.1-.4.3-.6.6-.8.3-.2.7-.2 1 0 .6.3.9 1.3.6 2.1-.1.4-.3.7-.6.8m11.4 3.6c-1.4.8-3.1.9-4.8 0-2.7-1.5-4.1-5.1-3-8 .4-1.1 1.1-2 1.9-2.5 1.4-.8 3.1-.9 4.8 0 2.7 1.5 4.1 5.1 3 8-.4 1.1-1.1 1.9-1.9 2.5m-8.3-12.5c-.3.2-.7.2-1 0-.6-.3-.9-1.3-.6-2.1.1-.4.3-.6.6-.8.3-.2.7-.2 1 0 .6.3.9 1.3.6 2.1-.1.4-.3.6-.6.8m-12.8 3.4c-.3.2-.7.2-1 0-.6-.3-.9-1.3-.6-2.1.1-.4.3-.6.6-.8.3-.2.7-.2 1 0 .6.3.9 1.3.6 2.1-.1.4-.4.7-.6.8m4.3-.3c-.3.2-.7.2-1-.1-.4-.3-.6-.9-.5-1.4 0-.1.1-.3.2-.4.4-.5.7-1.1.9-1.7l.3-.7c.2-.6.4-1.3.4-2 0-.1 0-.3.1-.4.1-.2.2-.3.3-.4.2-.1.5-.2.8-.1.6.3.9 1 .7 1.6 0 .1-.1.2-.1.2-.3.5-.7 1.1-.9 1.7l-.3.9c-.2.6-.3 1.3-.4 2 0 .1 0 .2-.1.3-.1.3-.2.4-.4.5m-2.4-3.9c-.4.3-1 .3-1.5 0-.8-.5-1.3-1.6-1-2.5.1-.3.3-.6.6-.8.4-.3 1-.3 1.5 0 .8.5 1.3 1.6 1 2.5-.1.4-.3.6-.6.8m1.2-4.7c-.3.2-.7.2-1 0-.6-.3-.9-1.3-.6-2.1.1-.4.3-.6.6-.8.3-.2.7-.2 1 0 .6.3.9 1.3.6 2.1-.1.4-.3.6-.6.8m-6 4.5c-.3.2-.7.2-1-.1-.4-.3-.6-.9-.5-1.4 0-.1.1-.3.2-.4.4-.5.7-1.1.9-1.7l.3-.7c.2-.6.4-1.3.4-2 0-.1 0-.3.1-.4.1-.2.2-.3.3-.4.2-.1.5-.2.8 0 .6.3.9 1 .7 1.6 0 .1-.1.2-.1.2-.3.5-.7 1.1-.9 1.7l-.3.9c-.2.6-.3 1.3-.4 2 0 .1 0 .2-.1.3-.1.2-.2.3-.4.4m-3.2-4.8c-.3.2-.6.2-.9 0-.5-.3-.8-1-.6-1.5.1-.2.2-.4.4-.5.3-.2.6-.2.9 0 .5.3.8 1 .6 1.5-.1.2-.2.4-.4.5" fill="#2054bc"/></g><g><path d="M278.6 124.7c12.1-.3 23.5 9.6 24.9 21.6.6 5.4-.5 10.6-3 14.9l3.1 7.6c.4.9-.4 1.9-1.4 1.6l-7.2-1.7c-.5-.1-1.1 0-1.5.3-3.8 2.8-8.5 4.5-13.6 4.6-12 .4-23.5-9.4-25-21.4-1.9-14.4 9.1-27.2 23.7-27.5z" fill="#cc1f59"/><path class="st24" d="M282 122.9c12.1.6 22.7 11.4 23.2 23.5.2 5.1-1.1 9.8-3.6 13.8-.4.6-.4 1.3-.2 1.9l2 6.2c.3.9-.6 1.8-1.5 1.5l-6.4-2.1c-.5-.2-1.1-.1-1.5.2-4 2.6-8.9 4-14.1 3.9-12.6-.4-23-10.6-23.6-23.2-.7-14.5 11.2-26.5 25.7-25.7z"/><circle class="st29" cx="291.7" cy="147.3" r="2.7"/><circle class="st29" cx="280.3" cy="147.3" r="2.7"/><circle class="st29" cx="268.8" cy="147.3" r="2.7"/></g><g><path d="M425.4 92.9l-11.8-47.4c-.8-3-3.1-5-5.2-4.5l-1.9.5h-.1l-15.3 3.8c-2.1.5-3.2 3.4-2.5 6.4l11.8 47.4c.8 3 3.1 5 5.2 4.5l1.9-.5h.1l15.3-3.8c2.2-.5 3.3-3.4 2.5-6.4z" fill="#55057f"/><path d="M412.1 99.5c-.1 0-.2-.1-.2-.2s0-.3.1-.3l6.8-1.7c.1 0 .2.1.2.2s0 .3-.1.3l-6.8 1.7m-4.3-7.9c-.4.1-.7-.2-.9-.7l-1.3-5.1c-.1-.5.1-1 .4-1.1l3.6-.9c.4-.1.7.2.9.8l1.3 5.1c.1.5-.1 1-.4 1.1l-3.6.8m-2.5-10.1c-.4.1-.7-.2-.9-.8l-1.3-5.1c-.1-.5.1-1 .4-1.1l3.6-.9c.4-.1.7.2.9.8l1.3 5.1c.1.5-.1 1-.4 1.1l-3.6.9m7.9-2c-.4.1-.7-.2-.9-.8l-1.3-5.1c-.1-.5.1-1 .4-1.1l3.6-.9c.4-.1.7.2.9.8l1.3 5.1c.1.5-.1 1-.4 1.1l-3.6.9m-10.4-8.1c-.4.1-.7-.2-.9-.8l-1.3-5.1c-.1-.5.1-1 .4-1.1l3.6-.9c.4-.1.7.2.9.8l1.3 5.1c.1.5-.1 1-.4 1.1l-3.6.9m7.9-2c-.4.1-.7-.2-.9-.8l-1.3-5.1c-.1-.5.1-1 .4-1.1l3.6-.9c.4-.1.7.2.9.8l1.3 5.1c.1.5-.1 1-.4 1.1l-3.6.9m-10.5-8.3c-.4.1-.7-.2-.9-.7l-1.3-5.1c-.1-.5.1-1 .4-1.1l3.6-.9c.4-.1.7.2.9.8l1.3 5.1c.1.5-.1 1-.4 1.1l-3.6.8m7.9-2c-.4.1-.7-.2-.9-.7l-1.3-5.1c-.1-.5.1-1 .4-1.1l3.6-.9c.4-.1.7.2.9.8l1.3 5.1c.1.5-.1 1-.4 1.1l-3.6.8m.7-16.9l-1.5.4c-.2.1-.4.4-.3.7l.2.9c.2.7-.1 1.3-.5 1.4l-8.9 2.2c-.5.1-1-.3-1.1-1l-.2-.9c-.1-.3-.3-.6-.6-.5l-1.5.4c-1.6.4-2.5 2.6-1.9 4.9l12 47.6c.6 2.3 2.4 3.8 4 3.4l14.4-3.6c1.6-.4 2.5-2.6 1.9-4.9l-12-47.6c-.6-2.3-2.4-3.8-4-3.4" fill="#8533ad"/><path class="st32" d="M402.1 53.2l-3.6.9c-.4.1-.5.6-.4 1.1l1.3 5.1c.1.5.5.8.9.7l3.6-.9c.4-.1.5-.6.4-1.1l-1.3-5.1c-.2-.4-.6-.8-.9-.7M409.9 51.2l-3.6.9c-.4.1-.5.6-.4 1.1l1.3 5.1c.1.5.5.8.9.7l3.6-.9c.4-.1.5-.6.4-1.1l-1.3-5.1c-.1-.4-.5-.8-.9-.7M404.6 63.5l-3.6.9c-.4.1-.5.6-.4 1.1l1.3 5.1c.1.5.5.8.9.8l3.6-.9c.4-.1.5-.6.4-1.1l-1.3-5.1c-.1-.5-.5-.9-.9-.8M412.5 61.5l-3.6.9c-.4.1-.5.6-.4 1.1l1.3 5.1c.1.5.5.8.9.8l3.6-.9c.4-.1.5-.6.4-1.1l-1.3-5.1c-.1-.5-.5-.9-.9-.8M407.2 73.7l-3.6.9c-.4.1-.5.6-.4 1.1l1.3 5.1c.1.5.5.8.9.8l3.6-.9c.4-.1.5-.6.4-1.1l-1.3-5.1c-.2-.6-.6-.9-.9-.8M415.1 71.7l-3.6.9c-.4.1-.5.6-.4 1.1l1.3 5.1c.1.5.5.8.9.8l3.6-.9c.4-.1.5-.6.4-1.1l-1.3-5.1c-.2-.6-.6-.9-.9-.8M409.7 83.7l-3.6.9c-.4.1-.5.6-.4 1.1l1.3 5.1c.1.5.5.8.9.7l3.6-.9c.4-.1.5-.6.4-1.1l-1.3-5.1c-.1-.4-.5-.8-.9-.7M418.8 97.3L412 99c-.1 0-.1.1-.1.3 0 .1.1.2.2.2l6.8-1.7c.1 0 .1-.2.1-.3 0-.2-.1-.2-.2-.2M403.1 44.6l-2.3.6c-.1 0-.1.1-.1.3 0 .1.1.2.2.2l2.3-.6c.1 0 .1-.2.1-.3 0-.1-.1-.2-.2-.2M404.2 44.3l-.3.1c-.1 0-.1.1-.1.3 0 .1.1.2.2.2l.3-.1c.1 0 .1-.2.1-.3 0-.1-.1-.2-.2-.2"/></g><g><path d="M550.4 109.7c0 3-4.8 14.2-14.6 32.2-10.3 18.8-13.2 21.4-17.9 21.7-.4 0-.9-.1-1.3-.2l-8.6-3.6c-.4-.2-1.5-.8-2.2-1.8-.5-.7-1.2-2.1-1.1-2.5.1-.5 29.9-48.1 29.9-48.1.3-.5.6-.9 1-1.3s.8-.7 1.2-1c.4-.3.9-.4 1.3-.5.4-.1 9.5.3 9.9.4 0-.2 2.5 2.1 2.4 4.7z" fill="#94ba3c"/><path class="st34" d="M536.7 105.7c-.6-.1-1-.9-.6-1.4l5.4-9.8c.2-.4.6-.6 1.1-.5.6.1 1 .9.6 1.4l-5.4 9.8c-.3.4-.7.6-1.1.5z"/><path d="M546.8 104.1l-9.7-2.4c-.4-.1-.8-.1-1.2 0-.4.1-.9.3-1.3.5-.4.3-.8.6-1.2 1-.4.4-.7.8-1 1.3l-27 47.7c-.3.5-.5 1-.6 1.5-.1.5-.2 1-.1 1.4 0 .4.2.8.4 1.1.2.3.5.6.9.7l9.2 3.8c.4.2.8.2 1.2.1.4-.1.9-.2 1.3-.5.4-.2.9-.6 1.3-1s.8-.9 1.1-1.4l27.7-49.6c.3-.5.5-1 .6-1.5.1-.5.1-.9 0-1.3s-.2-.7-.5-1c-.3-.1-.7-.3-1.1-.4" fill="#9c3"/><path class="st34" d="M543.4 112l-11.4-3h-.4c-.2 0-.3.1-.5.2s-.3.2-.4.4c-.1.1-.3.3-.4.5l-4.9 8.7c-.1.2-.2.4-.2.5v.5c0 .1.1.3.2.4.1.1.2.2.3.2l11.3 3.4h.5c.2 0 .3-.1.5-.2s.3-.2.5-.4c.1-.1.3-.3.4-.5l5-9c.1-.2.2-.4.2-.5v-.5c0-.1-.1-.3-.2-.4-.2-.1-.3-.2-.5-.3M542 105.6l-2.9-.7h-.1s-.1 0-.1.1l-.1.1-.1.1s0 .1-.1.1v.2s.1 0 .1.1l2.9.8h.1s.1 0 .1-.1l.1-.1.1-.1c0-.1 0-.1.1-.1v-.1s.1-.2-.1-.3c.1 0 .1 0 0 0M513.8 155.9l-2.8-1.1h-.1-.1l-.1.1-.1.1c0 .1 0 .1-.1.2s0 .1 0 .1v.1l.1.1 2.8 1.1h.2l.1-.1.1-.1c0-.1.1-.1.1-.2v-.1c0-.1 0-.1-.1-.2M523.8 127.9l-1-.3h-.4c-.2 0-.3.1-.5.2s-.3.2-.4.4c-.1.1-.3.3-.4.5-.1.2-.2.4-.2.5v.5c0 .1.1.3.2.4.1.1.2.2.3.2l1 .3c.1 0 .3.1.4 0 .2 0 .3-.1.5-.2s.3-.2.5-.4c.1-.1.3-.3.4-.5.1-.2.2-.4.2-.5v-.5c0-.1-.1-.3-.2-.4-.1-.1-.2-.1-.4-.2M527.7 129.2l-1.1-.3h-.4c-.2 0-.3.1-.5.2s-.3.2-.5.4c-.1.1-.3.3-.4.5-.1.2-.2.4-.2.5v.5c0 .2.1.3.2.4.1.1.2.2.3.2l1.1.4c.1 0 .3.1.5 0 .2 0 .3-.1.5-.2s.3-.2.5-.4c.1-.1.3-.3.4-.5.1-.2.2-.4.2-.5v-.5c0-.2-.1-.3-.2-.4-.1-.2-.2-.3-.4-.3M531.7 130.4l-1.1-.4c-.1 0-.3-.1-.5 0-.2 0-.3.1-.5.2s-.3.2-.5.4-.3.3-.4.5c-.1.2-.2.4-.2.6v.5c0 .2.1.3.2.4.1.1.2.2.3.2l1.1.4c.1 0 .3.1.5 0 .2 0 .3-.1.5-.2s.3-.2.5-.4c.1-.1.3-.3.4-.5.1-.2.2-.4.2-.6v-.5c0-.2-.1-.3-.2-.4-.1 0-.2-.1-.3-.2M521.5 132.1l-1-.3c-.1 0-.3-.1-.4 0-.2 0-.3.1-.5.2s-.3.2-.4.4c-.1.1-.3.3-.4.5-.1.2-.2.4-.2.5v.5c0 .2.1.3.1.4.1.1.2.2.3.2l1 .4c.1 0 .3.1.4 0 .2 0 .3-.1.5-.2s.3-.2.5-.4c.1-.1.3-.3.4-.5.1-.2.2-.4.2-.5v-.5c0-.2-.1-.3-.2-.4l-.3-.3M525.3 133.4l-1.1-.4c-.1 0-.3-.1-.4 0-.2 0-.3.1-.5.2s-.3.2-.5.4-.3.3-.4.5c-.1.2-.2.4-.2.5v.5c0 .2.1.3.2.4.1.1.2.2.3.2l1.1.4c.1 0 .3.1.4 0 .2 0 .3-.1.5-.2s.3-.2.5-.4c.1-.1.3-.3.4-.5.1-.2.2-.4.2-.6v-.5c0-.2-.1-.3-.2-.4 0 .1-.1 0-.3-.1M529.3 134.8l-1.1-.4c-.1 0-.3-.1-.5 0-.2 0-.3.1-.5.2s-.3.2-.5.4c-.1.1-.3.3-.4.5-.1.2-.2.4-.2.6v.5c0 .2.1.3.2.4.1.1.2.2.3.2l1.1.4c.1 0 .3.1.5 0 .2 0 .3-.1.5-.2s.3-.2.5-.4c.1-.1.3-.3.4-.5.1-.2.2-.4.2-.6v-.5c0-.2-.1-.3-.2-.4-.1-.1-.2-.2-.3-.2M519.1 136.4l-1-.4c-.1 0-.3-.1-.4 0-.2 0-.3.1-.5.2s-.3.2-.4.3c-.1.1-.3.3-.4.5-.1.2-.2.4-.2.5 0 .2-.1.3 0 .5 0 .2.1.3.1.4.1.1.2.2.3.2l1 .4c.1 0 .3.1.4 0 .2 0 .3-.1.5-.2s.3-.2.5-.4c.1-.1.3-.3.4-.5.1-.2.2-.4.2-.5 0-.2.1-.3 0-.5 0-.2-.1-.3-.2-.4-.1 0-.2-.1-.3-.1M522.9 137.7l-1.1-.4c-.1 0-.3-.1-.4 0-.2 0-.3.1-.5.2s-.3.2-.5.4-.3.3-.4.5c-.1.2-.2.4-.2.5 0 .2-.1.3 0 .5 0 .2.1.3.2.4.1.1.2.2.3.2l1.1.4c.1 0 .3.1.4 0 .2 0 .3-.1.5-.2s.3-.2.5-.4c.1-.1.3-.3.4-.5.1-.2.2-.4.2-.6v-.5c0-.2-.1-.3-.2-.4 0 0-.1 0-.3-.1M526.8 139.1l-1.1-.4c-.1 0-.3-.1-.5 0-.2 0-.3.1-.5.2s-.3.2-.5.4c-.1.1-.3.3-.4.5-.1.2-.2.4-.2.6v.5c0 .2.1.3.2.4.1.1.2.2.3.2l1.1.4c.1.1.3.1.5 0 .2 0 .3-.1.5-.2s.3-.2.5-.4c.1-.1.3-.3.4-.5.1-.2.2-.4.2-.6v-.5c0-.2-.1-.3-.2-.4 0-.1-.1-.2-.3-.2M516.7 140.6l-1-.4c-.1 0-.3-.1-.4 0-.2 0-.3.1-.5.2s-.3.2-.4.3c-.1.1-.3.3-.4.5-.1.2-.2.4-.2.5 0 .2-.1.3 0 .5 0 .2.1.3.1.4.1.1.2.2.3.2l1 .4c.1 0 .3.1.4 0s.3-.1.5-.2.3-.2.5-.3c.1-.1.3-.3.4-.5.1-.2.2-.4.2-.6 0-.2.1-.3 0-.5 0-.2-.1-.3-.1-.4-.2.1-.3 0-.4-.1M520.5 142l-1.1-.4c-.1 0-.3-.1-.4 0-.2 0-.3.1-.5.2s-.3.2-.5.4c-.1.1-.3.3-.4.5-.1.2-.2.4-.2.6 0 .2-.1.4 0 .5 0 .2.1.3.1.4.1.1.2.2.3.2l1.1.4c.1.1.3.1.4 0 .2 0 .3-.1.5-.2s.3-.2.5-.4c.1-.1.3-.3.4-.5.1-.2.2-.4.2-.6 0-.2.1-.4 0-.5 0-.2-.1-.3-.2-.4 0-.1-.1-.1-.2-.2M524.4 143.4l-1.1-.4c-.1-.1-.3-.1-.5 0-.2 0-.3.1-.5.2s-.3.2-.5.4c-.1.1-.3.3-.4.5-.1.2-.2.4-.2.6v.5c0 .2.1.3.2.4l.3.3 1.1.4c.1.1.3.1.5 0 .2 0 .3-.1.5-.2s.3-.2.5-.4c.1-.1.3-.3.4-.5.1-.2.2-.4.2-.6v-.5c0-.2-.1-.3-.2-.4 0-.1-.1-.2-.3-.3M514.3 144.9l-1-.4c-.1 0-.3-.1-.4 0-.2 0-.3.1-.5.2s-.3.2-.4.3c-.1.1-.3.3-.4.5-.1.2-.2.4-.2.5 0 .2-.1.3 0 .5 0 .2.1.3.1.4.1.1.2.2.3.2l1 .4c.1.1.3.1.4 0 .2 0 .3-.1.5-.2s.3-.2.5-.3.3-.3.4-.5c.1-.2.2-.4.2-.6 0-.2.1-.4 0-.5 0-.2-.1-.3-.1-.4-.2 0-.3-.1-.4-.1M522 147.8l-1.1-.4c-.1-.1-.3-.1-.5 0-.2 0-.3.1-.5.2s-.3.2-.5.4c-.1.1-.3.3-.4.5-.1.2-.2.4-.2.6 0 .2-.1.4 0 .5 0 .2.1.3.2.4l.3.3 1.1.4c.1.1.3.1.5 0 .2 0 .3-.1.5-.2s.3-.2.5-.4c.1-.1.3-.3.4-.5.1-.2.2-.4.2-.6v-.5c0-.2-.1-.3-.2-.4-.1-.2-.2-.3-.3-.3"/></g><g><path class="st15" d="M535.2 274.5c0 .9.5 1.6 1.2 2l54.2 31.9c.9.5 2.1.4 2.8-.4l29-28.7c.3-.3.4-.6.4-1v-.9l-87.6-2.9z"/><path class="st21" d="M568.2 256.7l-33 17.7 55.4 31.7c.9.5 2 .4 2.8-.3l29.3-28.3-53.5-20.8c-.3-.2-.7-.2-1 0z"/><path class="st15" d="M582 219l40.6 58.1.1.4c.5.2.9-.4 1.1-.9l15.7-45.4c.1-.4-.1-.8-.5-.9L582 219z"/><path class="st21" d="M581.2 219.3l-10.9 36.9c-.1.3.1.6.3.7l52.2 20.6 16.2-46.4c.1-.3-.1-.7-.4-.7L582 218.9c-.4-.1-.7.1-.8.4z"/><path class="st15" d="M571.6 257.2c-.3-.1-.5-.1-.8.1l-.4.3c-.3.2-.2.5.1.7l1.4.5c.2.1.3.4.2.6-.2.2-.1.5.2.6l40.4 16.2h.4l1.2-.9c.1-.1.2-.1.4 0l4.2 1.7c.1.1.3 0 .4-.1l.3-.2c.2-.2.2-.5-.1-.6l-47.9-18.9zM552.6 267.3l50.9 23.5 11.5-10.9-49-20zM581.2 222.6l-9.3 31.5c-.1.5.1 1 .6 1.1l49.1 18.7c.5.2 1-.1 1.2-.6l13.7-38.6c.2-.5-.1-1.1-.7-1.2L582.3 222c-.5-.1-.9.1-1.1.6zM566.2 275.8l15.6 7.3-10.3 8.3-15-8.6z"/><g><path class="st21" d="M552.6 267.5c-.1 0-.1 0-.2-.1s0-.2.1-.3l13.4-7.4c.1-.1.2 0 .3.1.1.1 0 .2-.1.3l-13.5 7.4c.1 0 .1 0 0 0zM556.6 269.3l-.2-.4 13.3-7.6.2.3z"/><path transform="rotate(-31.244 567.018 266.952)" class="st21" d="M559.3 266.8h15.4v.4h-15.4z"/><path transform="rotate(-32.242 570.846 268.643)" class="st21" d="M563.1 268.4h15.4v.4h-15.4z"/><path class="st21" d="M568.3 274.7l-.2-.3 12.9-8.5.2.4zM572.3 276.6l-.3-.4 12.8-8.7.2.3z"/><path transform="rotate(-35.554 582.342 273.688)" class="st21" d="M574.6 273.5h15.5v.4h-15.5z"/><path transform="rotate(-36.633 586.145 275.372)" class="st21" d="M578.4 275.2H594v.4h-15.6z"/><path transform="rotate(-37.704 590.028 277.063)" class="st21" d="M582.2 276.9h15.6v.4h-15.6z"/><path transform="rotate(-38.758 593.808 278.766)" class="st21" d="M586 278.6h15.7v.4H586z"/><path transform="rotate(-39.823 597.747 280.45)" class="st21" d="M589.8 280.2h15.8v.4h-15.8z"/><path transform="rotate(-40.876 601.575 282.136)" class="st21" d="M593.6 281.9h15.8v.4h-15.8z"/><path class="st21" d="M599.6 289.3l-.3-.3 11.9-10.7.2.4zM603.5 291.1l-.3-.3 11.7-10.9.3.3z"/></g><g><path class="st21" d="M615.1 280.2c-.1 0-.1 0 0 0l-49-20.3c-.1 0-.2-.2-.1-.3 0-.1.2-.2.3-.1l48.9 20.3c.1 0 .2.2.1.3-.1.1-.2.1-.2.1zM613.1 282.1l-49.3-20.9c-.1 0-.2-.2-.1-.3 0-.1.2-.1.3-.1l49.3 20.9c.1 0 .2.2.1.3-.1 0-.2.1-.3.1zM611.2 283.9c-.1 0-.1 0 0 0l-49.7-21.4c-.1 0-.2-.2-.1-.3 0-.1.2-.2.3-.1l49.6 21.4c.1 0 .2.2.1.3-.1.1-.2.1-.2.1zM609.2 285.7l-50-22c-.1 0-.1-.2-.1-.3 0-.1.2-.1.3-.1l49.9 22c.1 0 .1.2.1.3 0 .1-.1.1-.2.1zM607.3 287.6c-.1 0-.1 0 0 0L557 265c-.1 0-.1-.2-.1-.3 0-.1.2-.1.3-.1l50.2 22.6c.1 0 .1.2.1.3-.1 0-.2.1-.2.1zM605.3 289.4l-50.6-23.2c-.1 0-.1-.2-.1-.3 0-.1.2-.1.3-.1l50.5 23.1c.1 0 .1.2.1.3 0 .2-.1.2-.2.2zM603.4 291.2c-.1 0-.1 0 0 0l-50.9-23.7c-.1 0-.1-.2-.1-.3 0-.1.2-.1.3-.1l50.9 23.7c.1 0 .1.2.1.3-.2.1-.3.1-.3.1z"/></g><path fill="none" stroke="#f06396" stroke-width=".5" stroke-linecap="round" stroke-linejoin="round" stroke-miterlimit="10" d="M608.5 225.9l1.6.3"/></g></svg>