<?xml version="1.0" encoding="utf-8"?>
<!-- Generator: Adobe Illustrator 24.0.0, SVG Export Plug-In . SVG Version: 6.00 Build 0)  -->
<svg version="1.1" id="Layer_1" xmlns="http://www.w3.org/2000/svg" xmlns:xlink="http://www.w3.org/1999/xlink" x="0px" y="0px"
	 viewBox="0 0 320 320" style="enable-background:new 0 0 320 320;" xml:space="preserve">
<style type="text/css">
	.st0{fill:#F596B5;}
	.st1{fill:#EB3D7D;}
	.st2{fill:#C299D6;}
	.st3{fill:#660099;}
	.st4{fill:#B2807B;}
	.st5{fill:#AA777D;}
	.st6{fill:#F4D7BA;}
	.st7{fill:#EDCCB8;}
	.st8{fill:#461E5F;}
	.st9{fill:#916666;}
	.st10{fill:#875D67;}
	.st11{fill:#DDAA99;}
	.st12{fill:#D19D97;}
</style>
<g>
	<g>
		<circle class="st0" cx="76.4" cy="78.2" r="73.1"/>
		<circle class="st1" cx="238.4" cy="78.2" r="73.1"/>
		<circle class="st2" cx="76.4" cy="239.9" r="73.1"/>
		<circle class="st3" cx="238.4" cy="239.9" r="73.1"/>
		<g>
			<g>
				<path class="st4" d="M82.6,35.9c-19.7-4.6-46.4,9-48,36.7c-1.6,26.8,23.2,30.6,25.9,39.3c2.5,8,0.7,26.4,0.2,28.8
					c-0.7,3.3-1.1,6.1-1.2,8.6c5.4,1.3,11.1,2,16.9,2c4.8,0,9.4-0.5,13.9-1.3c-0.3-1.2-0.5-2.6-0.7-4.4c-0.6-7.9-1.1-19,5.5-19.9
					c11.4-1.5,16.5-5.8,18.9-10.1c3.9-6.9,2.9-12.7,2.8-18c-0.1-5.2,2.8-7,5.3-9.1c3.6-3.1-2-5.2-7.2-15.6
					C105.4,53.6,107,41.6,82.6,35.9z"/>
				<path class="st5" d="M95.2,125.7c0,0-6.1,1.6-12.6,0.7c-4.8-0.7,7.5,22.3,7.5,22.3S86.5,128.3,95.2,125.7z"/>
			</g>
			<path class="st3" d="M62.6,33.9c0.5-0.1,1-0.3,1.4-0.6c5.3-4.3,16.5-6.5,31,1.9c12.5,7.2,13.1,22.1,13.1,22.1
				s-5.9-13.7-14.6-15.2c-0.5-0.1-0.8,0.6-0.4,0.9c1.9,1.6,5.2,5.4,5.6,13.3c0.7,12.4-7.6,22.1-11.5,25.9c-0.7,0.7-2,0.1-1.8-0.8
				c0.4-1.5,0.9-5.3,0.9-7.5c0.1-3.4-0.2-5.4-1.2-5.8c-1.1-0.4-2.7,11.4-3.5,20.5c-0.1,0.6-0.8,0.8-1.2,0.4
				c-2.7-2.8-9.6-9.5-12.4-4.6c-3.4,6,13.5,9,11,21.3c-2,10.3-11.9,17.9-18.2,19.2c-0.5,0.1-0.9-0.4-0.7-0.9
				c0.3-0.6,0.7-1.4,0.9-2.5c0.3-1.4,0.3-4,0-5.5c0,0-0.1,2.7-1.5,4c-2.3,2-4.3,1.4-4.5,1.1s2.5-1.3,2.1-4.7
				c-0.2-2.1-1.6-4.7-4.7-6.7c-3.8-2.5-25.1-12.7-23-41.4C31.8,38.9,57.7,34.5,62.6,33.9z"/>
			<path class="st4" d="M76.8,85.6c-6.6-5.8-13.6-4.5-12.6,4.1s14.4,18.3,18.7,15.6C87.2,102.7,76.8,85.6,76.8,85.6z"/>
		</g>
		<g>
			<g>
				<path class="st6" d="M244.5,35.9c-19.7-4.6-46.4,9-48,36.7c-1.6,26.8,23.2,30.6,25.9,39.3c2.5,8,0.7,26.4,0.2,28.8
					c-0.7,3.3-1.1,6.1-1.2,8.6c5.4,1.3,11.1,2,16.9,2c4.8,0,9.4-0.5,13.9-1.3c-0.3-1.2-0.5-2.6-0.7-4.4c-0.6-7.9-1.1-19,5.5-19.9
					c11.4-1.5,16.5-5.8,18.9-10.1c3.9-6.9,2.9-12.7,2.8-18c-0.1-5.2,2.8-7,5.3-9.1c3.6-3.1-2-5.2-7.2-15.6
					C267.3,53.6,269,41.6,244.5,35.9z"/>
				<path class="st7" d="M257.2,125.7c0,0-6.1,1.6-12.6,0.7c-4.8-0.7,7.5,22.3,7.5,22.3S248.4,128.3,257.2,125.7z"/>
			</g>
			<path class="st8" d="M224.6,33.9c0.5-0.1,1-0.3,1.4-0.6c5.3-4.3,16.5-6.5,31,1.9c12.5,7.2,13.1,22.1,13.1,22.1
				s-5.9-13.7-14.6-15.2c-0.5-0.1-0.8,0.6-0.4,0.9c1.9,1.6,5.2,5.4,5.6,13.3c0.7,12.4-7.6,22.1-11.5,25.9c-0.7,0.7-2,0.1-1.8-0.8
				c0.4-1.5,0.9-5.3,0.9-7.5c0.1-3.4-0.2-5.4-1.2-5.8c-1.1-0.4-2.7,11.4-3.5,20.5c-0.1,0.6-0.8,0.8-1.2,0.4
				c-2.7-2.8-9.6-9.5-12.4-4.6c-3.4,6,13.5,9,11,21.3c-2,10.3-11.9,17.9-18.2,19.2c-0.5,0.1-0.9-0.4-0.7-0.9
				c0.3-0.6,0.7-1.4,0.9-2.5c0.3-1.4,0.3-4,0-5.5c0,0-0.1,2.7-1.5,4c-2.3,2-4.3,1.4-4.5,1.1s2.5-1.3,2.1-4.7
				c-0.2-2.1-1.6-4.7-4.7-6.7c-3.8-2.5-25.1-12.7-23-41.4C193.7,38.9,219.7,34.5,224.6,33.9z"/>
			<path class="st6" d="M238.8,85.6c-6.6-5.8-13.6-4.5-12.6,4.1c1.1,8.6,14.4,18.3,18.7,15.6C249.1,102.7,238.8,85.6,238.8,85.6z"/>
		</g>
		<g>
			<g>
				<path class="st9" d="M82.6,191.7c-19.7-4.6-46.4,9-48,36.7c-1.6,26.8,20.8,30.8,23.5,39.5c2.5,8-0.8,26.3-0.9,28.8
					c-0.4,5.6-3.3,9.5-5.1,12.1c7.6,2.7,15.8,4.2,24.4,4.2c0,0,0,0,0,0c1.3,0,2.6,0,3.9-0.1c0.2,0,0.4,0,0.6,0
					c1.1-0.1,2.3-0.2,3.4-0.3c0.1,0,0.2,0,0.3,0c2.5-0.3,5.1-0.7,7.5-1.2c-0.8-2.5-2-4.4-2.4-9.8c-0.6-7.9-1.1-19,5.5-19.9
					c11.4-1.5,16.5-5.8,18.9-10.1c3.9-6.9,2.9-12.7,2.8-18c-0.1-5.2,2.8-7,5.3-9.1c3.6-3.1-2-5.2-7.2-15.6
					C105.4,209.5,107,197.4,82.6,191.7z"/>
				<path class="st10" d="M95.2,281.5c0,0-6.1,1.6-12.6,0.7c-4.8-0.7,7.5,22.3,7.5,22.3S86.5,284.2,95.2,281.5z"/>
			</g>
		</g>
		<g>
			<g>
				<path class="st11" d="M244.5,191.7c-19.7-4.6-46.4,9-48,36.7c-1.6,26.8,23.2,30.6,25.9,39.3c2.5,8,0.7,26.4,0.2,28.8
					c-1.3,6.2-1.5,10.8-0.7,14.5c5.3,1.2,10.7,1.9,16.4,1.9c5.4,0,10.7-0.6,15.7-1.7c-0.8-2.5-2-4.4-2.4-9.8
					c-0.6-7.9-1.1-19,5.5-19.9c11.4-1.5,16.5-5.8,18.9-10.1c3.9-6.9,2.9-12.7,2.8-18c-0.1-5.2,2.8-7,5.3-9.1c3.6-3.1-2-5.2-7.2-15.6
					C267.3,209.5,269,197.4,244.5,191.7z"/>
				<path class="st12" d="M257.2,281.5c0,0-6.1,1.6-12.6,0.7c-4.8-0.7,7.5,22.3,7.5,22.3S248.4,284.2,257.2,281.5z"/>
			</g>
			<path class="st1" d="M224.6,189.7c0.5-0.1,1-0.3,1.4-0.6c5.3-4.3,16.5-6.5,31,1.9c12.5,7.2,13.1,22.1,13.1,22.1
				s-5.9-13.7-14.6-15.2c-0.5-0.1-0.8,0.6-0.4,0.9c1.9,1.6,5.2,5.4,5.6,13.3c0.7,12.4-7.6,22.1-11.5,25.9c-0.7,0.7-2,0.1-1.8-0.8
				c0.4-1.5,0.9-5.3,0.9-7.5c0.1-3.4-0.2-5.4-1.2-5.8c-1.1-0.4-2.7,11.4-3.5,20.5c-0.1,0.6-0.8,0.8-1.2,0.4
				c-2.7-2.8-9.6-9.5-12.4-4.6c-3.4,6,13.5,9,11,21.3c-2,10.3-11.9,17.9-18.2,19.2c-0.5,0.1-0.9-0.4-0.7-0.9
				c0.3-0.6,0.7-1.4,0.9-2.5c0.3-1.4,0.3-4,0-5.5c0,0-0.1,2.7-1.5,4c-2.3,2-4.3,1.4-4.5,1.1c-0.2-0.3,2.5-1.3,2.1-4.7
				c-0.2-2.1-1.6-4.7-4.7-6.7c-3.8-2.5-25.1-12.7-23-41.4C193.7,194.8,219.7,190.3,224.6,189.7z"/>
			<path class="st11" d="M238.8,241.5c-6.6-5.8-13.6-4.5-12.6,4.1c1.1,8.6,14.4,18.3,18.7,15.6S238.8,241.5,238.8,241.5z"/>
		</g>
	</g>
	<path class="st1" d="M256.5,196.4c-9-5.8-27.1-5.5-27.1-5.5L197,207.7c-10.4,11.1-11.1,36.2-8.1,56.8c1.9,13-1,20.9-3.9,25.2
		c13.1,14.1,31.7,22.9,52.4,23.2c4.2-0.3,6.3-1,6.3-1s-5.6-16.6-6.2-26.7c-0.8-11.9,3.8-23.7,3.8-23.7s-14.5,1.3-21.3-12.3
		c-6.8-13.6,7.9-20.9,18.3-11.5c2.7,2.5,5.1,7.3,5.1,7.3s19.4-5.9,21.6-20.5C266.6,213.5,265.5,202.1,256.5,196.4z"/>
	<path class="st3" d="M49.2,69.1c0,0-8.4-18.4-26.1-12.3c-17.6,6.1-26,35.7-2.8,63.1c4.6,5.5,7.7,10.4,9.6,14.7
		c4.7,3.9,10,7.2,15.6,9.8c0.7-1.9,1.2-4,1.6-6.4C49.7,121.7,29.3,77.5,49.2,69.1z"/>
	<path class="st3" d="M86.7,43.7c8.5,7.9,10.2,23.7,4.5,31.6c0,0,20.4-6.5,20-20.7c-0.4-10.9-8.1-27.1-36.9-25
		C66.3,30.2,86.7,43.7,86.7,43.7z"/>
	<path class="st8" d="M100.7,260.6c-0.2,0.3-0.4,0.6-0.3,0.9c0.1,0.4,0.7,0.6,1.1,0.6c3.2,0.3,6.5,0.1,9.5-1.3
		c3.1-1.4,11-10,3.2-8.9C109,252.8,103.8,256.5,100.7,260.6z"/>
	<path class="st8" d="M109.8,259.6c0.6,4.7,2.4,6,4.7,6.2c2.3,0.2,1.9-1.3,1.9-1.3s1,8.6-0.6,12c-1.5,3.4-6.2,6.6-12,0.6
		c-4-4.1-3.4-15.5-3.4-15.5L109.8,259.6z"/>
	<path class="st8" d="M108.1,213.2c0,0-0.6-14.9-13.1-22.1c-14.5-8.4-25.6-6.2-31-1.9c-0.4,0.3-0.9,0.6-1.4,0.6
		c-4.9,0.6-30.9,5-32.9,34.4c-2,28.7,17.1,33.9,24.1,43.2c8.7,11.5,11,5.9,13.6,1.7c1.8-3,4.1-7.6,3.4-12c-0.3-1.9-2.2-2.4-3-4.1
		c-0.2-0.3-0.1-0.7,0.1-0.9c0.6-2,2.4-3.5,4.2-4.6c-2.9-2.5-5.3-4.5-3.8-7.1c2.8-4.8,9.8,1.8,12.4,4.6v0c3.4,5.1,4.1,9.8,7,9.4
		c2.8-0.4,5.5-2.4,2.8-4.1c-2.6-1.7-7.5-8.7-10.9-14.3c-4.4-12.9,1.3-19.5,8.2-25.6c5.9-5.2,8.3-8,7-12
		C102.8,200.8,108.1,213.2,108.1,213.2z"/>
	<path class="st9" d="M76.8,241.5c-6.6-5.8-13.6-4.5-12.6,4.1s14.4,18.3,18.7,15.6S76.8,241.5,76.8,241.5z"/>
</g>
</svg>
