<?xml version="1.0" encoding="UTF-8"?>
<svg width="82px" height="23px" viewBox="0 0 82 23" version="1.1" xmlns="http://www.w3.org/2000/svg" xmlns:xlink="http://www.w3.org/1999/xlink">
    <!-- Generator: Sketch 52.6 (67491) - http://www.bohemiancoding.com/sketch -->
    <title>Fill 1</title>
    <desc>Created with Sketch.</desc>
    <g id="Exemplo-de-Aplicação" stroke="none" stroke-width="1" fill="none" fill-rule="evenodd">
        <g id="Componente_Footer_Desk_Aplicado" transform="translate(-71.000000, -708.000000)" fill="#004250">
            <g id="_subfooter" transform="translate(0.000000, 672.000000)">
                <path d="M79.15698,42.8683592 L79.2865344,42.7575951 C79.1045649,42.4559609 79.0313815,41.9258759 79.0442381,41.6034734 C79.1085208,38.9579931 81.9092685,37.452789 86.2844479,37.452789 L88.6965326,37.452789 C87.289236,38.2765965 86.1133571,39.3585238 85.2084544,41.4056805 C84.8207803,42.2828921 82.9684496,47.0150877 82.2138696,49.1463065 C81.2723753,51.6760779 80.6740517,52.8262437 79.9283724,53.2455647 L80.0549599,53.4750045 C82.1505759,53.6035699 83.3986492,52.5335102 84.2026774,50.5545921 C84.9720919,48.6894048 85.9828137,45.7086655 86.4822408,44.3844419 C88.0902973,40.1289272 88.796418,38.3389013 90.082072,37.452789 C91.869131,37.4448773 93.5938853,37.4448773 93.5938853,37.4448773 C95.5164325,37.3944401 96.3362841,36.9157812 96.9395526,36.1701019 L96.8020865,36 C96.3194717,36.2561418 95.278092,36.3115238 94.3919797,36.3164687 L85.7128264,36.3164687 C80.8253633,36.3164687 77.8317675,37.9195803 77.343219,40.3069408 C77.1048785,41.4640294 77.7457276,42.7170476 79.15698,42.8683592 M112.001483,57.3606464 C91.6644154,57.3606464 71,57.6078876 71,57.9095218 C71,58.2081891 91.6644154,58.4653199 112.001483,58.4653199 C132.340529,58.4653199 153,58.2081891 153,57.9095218 C153,57.6078876 132.340529,57.3606464 112.001483,57.3606464 M132.115046,39.4742326 C132.674799,39.4673099 133.235542,38.9510704 133.355207,38.3329675 C133.491684,37.7000302 133.1228,37.2104927 132.564035,37.228294 C132.006259,37.228294 131.452439,37.7385998 131.318929,38.3725261 C131.200253,38.9916179 131.545402,39.4861002 132.115046,39.4742326 M104.103612,41.7112706 C104.403268,41.7112706 104.5259,41.9189531 104.5259,42.1830067 C104.515021,43.432069 102.981137,45.0341916 100.998263,46.1991919 C101.49769,44.2627993 102.885208,41.6905023 104.103612,41.7112706 M98.2983899,48.2196466 C98.2855334,49.5181571 98.9698969,50.5990955 100.718386,50.5367907 C102.588518,50.4903094 104.298438,49.4024483 105.771995,47.8537297 C105.401134,48.8476391 105.088621,49.7040825 104.891817,50.1619731 C104.346897,51.533667 103.942411,52.6403184 103.100802,53.2801785 L103.193765,53.4512694 C105.661231,53.5946692 106.586902,51.8560695 107.609492,49.020708 C108.621202,46.1853464 109.482591,43.7198577 110.151131,42.0109269 C111.235036,42.0109269 112.763975,42.0494965 113.626352,41.8546704 C111.385358,42.8505578 109.482591,46.4236869 109.705108,48.7794006 C109.804004,49.8197914 110.431008,50.5367907 111.75622,50.5367907 C114.32555,50.5367907 116.489405,47.4977025 117.309256,45.4910933 C117.783959,44.3419164 118.100428,43.3588856 118.149876,42.369921 C118.762045,42.2660797 119.343557,42.1612495 119.63629,42.1167461 C120.2,42.0396068 120.091214,42.6616656 119.9132,43.1294458 C118.859953,46.0646928 117.047181,50.3241633 117.035313,50.3933908 L119.041922,50.3933908 C119.9132,48.5816077 120.452186,47.4235301 121.141494,46.1942471 C121.982114,44.744425 123.847301,42.3580534 124.592981,42.3491527 C124.854067,42.3491527 124.924284,42.5172767 124.858023,42.7714406 C124.726491,43.7564494 122.323307,47.5224266 122.364844,49.3777242 C122.38759,50.5911837 123.024483,51.3259844 124.140035,51.6048725 L124.377386,51.4713622 C124.232998,51.2063197 124.214207,50.8750166 124.21124,50.4903094 C124.195417,49.2471808 125.200205,47.0773925 125.591835,46.2338057 C126.209938,44.913538 127.316589,42.9801122 127.244395,41.9258759 C127.212748,41.4056805 126.821118,40.943834 125.936984,40.9369113 C124.299258,40.9280106 122.667467,42.5172767 121.299729,44.6484954 L121.267093,44.6415727 C121.81399,43.4024 122.240234,42.2522342 122.2254,41.6905023 C122.213532,41.1821745 121.921787,40.9764699 121.311596,40.9764699 C120.882386,40.9873485 120.29593,41.1554725 119.709474,41.3137068 C118.903467,41.5204004 118.051969,41.7379726 117.116408,41.9357655 C116.546765,42.0109269 116.346005,42.1167461 116.362817,42.3234397 C116.478526,45.5810891 114.261268,49.41036 112.781777,49.4232165 C112.148839,49.4232165 112.007417,48.9603811 112.007417,48.3175541 C112.001483,46.0646928 113.852825,42.2828921 115.657686,41.6845685 C115.81592,41.6410541 115.973165,41.6034734 116.078985,41.5708376 L116.304468,40.9626244 C115.922728,41.0447084 115.008925,41.057565 114.532244,41.0684436 L110.558584,41.0684436 C111.608864,38.5683411 113.080444,36.9533619 115.234409,36.8554544 C116.571489,36.8119399 117.47738,37.3192788 117.556498,38.0817705 C117.609902,38.738443 117.430899,39.2635832 116.909715,39.8065248 L117.054104,39.9558584 C118.235916,39.3970934 119.051812,38.4486764 119.054779,37.7979376 C119.07258,36.7971055 117.864066,36.1799916 115.934596,36.2007598 C113.48493,36.2175722 110.469577,36.7704034 108.35616,41.1436049 C107.725201,41.2365676 107.156546,41.476886 106.679865,41.9871917 L106.764916,42.1830067 C107.108087,42.0583972 107.516529,42.0396068 107.971453,42.0396068 C107.678719,42.7575951 107.088307,44.3102696 106.505807,45.9114032 C104.731605,48.2562383 102.946524,49.3777242 101.636145,49.3777242 C100.92508,49.3975035 100.640258,49.0048845 100.632346,48.3175541 C100.625424,47.8863656 100.728276,47.2840861 100.815305,46.9695954 C102.212712,46.2713864 103.616053,45.4821926 104.887861,44.1777483 C105.583103,43.4231683 106.067696,42.6616656 106.085497,41.8774166 C106.097365,41.1436049 105.644419,40.7648315 104.713803,40.7509859 C103.384635,40.7361515 101.783501,41.6499548 100.739155,42.7575951 C99.3763613,44.2449979 98.3201471,46.3475366 98.2983899,48.2196466 M143.648351,42.0168606 C144.233818,41.7379726 144.724344,41.7231382 145.133776,41.8052222 C144.979497,42.1305916 144.273376,43.5507447 143.72549,44.8324429 C142.85619,46.8360851 141.552735,48.8565398 140.345209,49.1463065 C139.932811,49.2659712 139.682603,49.0859796 139.689525,48.6706145 C139.728095,46.8934451 141.678333,42.9375867 143.648351,42.0168606 M126.498716,49.1739975 C126.498716,50.0601098 127.061436,50.6099741 128.135452,50.5743713 C129.249026,50.5545921 130.384357,49.8939637 131.318929,48.991039 C131.49991,49.9463788 132.18724,50.6445878 133.594537,50.5911837 C135.061171,50.5367907 136.458578,49.6200205 137.432708,48.5568836 L137.432708,48.8634626 C137.432708,49.8504493 137.939058,50.58525 139.062522,50.58525 C140.275981,50.58525 141.666466,49.6714467 142.771139,48.1108605 L142.805753,48.124706 C142.70389,48.4945788 142.584225,49.1265272 142.56939,49.5458482 C142.547633,50.7296388 143.254743,51.4080685 144.225906,51.6048725 L144.463258,51.5109208 C144.108219,50.6485437 144.606657,48.516336 144.812362,47.8072484 C145.537273,45.472303 146.692384,42.8030875 147.360924,41.4155702 C147.057312,41.1554725 146.346246,40.9794368 145.585732,40.943834 C143.06684,40.8518603 140.533112,41.8912621 138.683748,45.1588012 C138.36728,45.7314117 138.022131,46.3870952 137.767967,47.0773925 C137.501936,47.427486 137.227004,47.7380209 137.111295,47.8537297 C136.439788,48.4945788 135.495327,49.3183863 134.531086,49.3332208 C133.979244,49.3431104 133.679588,48.9584032 133.689477,48.2730507 C133.702334,45.6572393 136.010577,41.6845685 137.579075,41.672701 C138.010264,41.672701 138.193222,41.8586263 138.193222,42.2265211 C138.193222,42.6616656 137.894555,43.2590002 137.474245,43.6466743 L137.656214,43.8147983 C138.709461,43.4093228 139.682603,42.677489 139.689525,41.8981849 C139.689525,41.0091057 138.664958,40.8439486 137.757089,40.8518603 C136.53275,40.8686727 135.011723,41.4699632 133.785407,42.8030875 C132.253501,44.4754266 131.466285,46.4800579 131.307061,47.9140566 C130.609841,48.7339082 129.82757,49.2887174 129.304408,49.2956401 C129.010686,49.3055298 128.79608,49.1463065 128.79608,48.8407164 C128.79608,48.5647953 128.953326,48.0089972 129.223313,47.2840861 C129.899765,45.5998794 130.880818,43.4963517 132.08241,41.0041609 C132.08241,41.0041609 130.250847,41.3137068 129.987783,41.3868902 C129.711862,41.4541398 129.497256,41.6410541 129.373636,41.8912621 C128.589387,43.5507447 127.656793,45.472303 127.083194,46.9043237 C126.718266,47.8072484 126.498716,48.6597359 126.498716,49.1739975 M93.2299463,41.7112706 C93.5325695,41.7112706 93.6383887,41.9189531 93.6383887,42.1830067 C93.6383887,43.432069 92.094615,45.0341916 90.1236085,46.1991919 C90.6210577,44.2627993 92.0115419,41.6905023 93.2299463,41.7112706 M95.055575,45.9875535 C93.827281,47.762745 92.1143943,49.3777242 90.6438039,49.3777242 C90.0158114,49.3975035 89.7418682,49.0394983 89.7527468,48.3175541 C89.7527468,47.8863656 89.8565881,47.2781523 89.9396611,46.9695954 C91.3301453,46.2713864 92.7473316,45.4821926 94.0072725,44.1777483 C94.7133932,43.4231683 95.1811735,42.6616656 95.2049086,41.8774166 C95.2157873,41.1436049 94.7529518,40.7648315 93.8351927,40.7509859 C92.5020684,40.7361515 90.9039016,41.6499548 89.8635108,42.7575951 C88.4957728,44.2449979 87.4474703,46.3475366 87.4217572,48.2196466 C87.4069228,49.5458482 88.0368932,50.5990955 89.7418682,50.5367907 C91.5674968,50.4903094 93.3654345,49.0780679 94.2881385,48.0584454 C94.1803413,48.4945788 94.0992462,48.9059881 94.0992462,49.242236 C94.0992462,50.4210818 94.6886691,51.25379 95.8437798,51.6108062 L96.0761865,51.5010312 C95.9713562,51.1845625 95.9436652,50.8512814 95.9713562,50.4784418 C96.0544292,49.3332208 96.5063861,48.040644 97.1739372,46.3396249 C98.4516794,43.1294458 100.307966,39.4554423 101.124851,37.2896098 L99.1765905,37.6555267 C98.8749563,37.7198094 98.6811192,37.9512272 98.5812338,38.1727552 C97.6417174,40.1684858 96.6784659,42.2967376 95.474896,45.0727613 C95.3374299,45.3654948 95.2049086,45.6789966 95.055575,45.9875535" id="Fill-1"></path>
            </g>
        </g>
    </g>
</svg>