<svg version="1.1" id="Layer_1" xmlns="http://www.w3.org/2000/svg" x="0" y="0" viewBox="0 0 671 592" xml:space="preserve"><style>.st0{fill:#fadb4f}.st8{fill:#f4d7ba}.st9{fill:#edccb8}.st10{fill:#eb3d7d}.st11{fill:#d83582}.st12{fill:#609}.st13{fill:#461e5f}</style><path class="st0" d="M71.6 347.5l.9 6.3c0 .1.1.2.2.2l6.3.9c.3 0 .3.5 0 .5l-6.3.9c-.1 0-.2.1-.2.2l-.9 6.3c0 .3-.5.3-.5 0l-.9-6.3c0-.1-.1-.2-.2-.2l-6.3-.9c-.3 0-.3-.5 0-.5l6.3-.9c.1 0 .2-.1.2-.2l.9-6.3c0-.3.5-.3.5 0z"/><linearGradient id="SVGID_1_" gradientUnits="userSpaceOnUse" x1="333.461" y1="19.2" x2="338.047" y2="505.308"><stop offset=".005" stop-color="#a178b5"/><stop offset=".811" stop-color="#a178b5" stop-opacity="0"/></linearGradient><path d="M68.2 432c8.8-19.3 24-36.2 28.9-56.7 8.5-35.9-16.3-70.7-22.8-106.9-5.7-32.2 4.1-66.5 26-91.6s55.8-40.6 90.2-41.2c43.3-.8 86.1 20.4 128.6 12.5 21-3.9 39.9-14.6 60.4-20.6 20.7-6.1 43.5-7.2 64.2-1 20.7 6.2 39.1 20.3 48 39.1 16 34-.7 76.1 16.4 109.6 17.9 35.2 65.4 47 91.1 77.6 19.5 23.2 24 56.8 11.2 83.9-9 19.1-25.9 35.3-29.3 56-1.2 7.3-.6 14.9-2.7 22.1-4.8 16.8-22.7 27.3-40.4 32.1-44.4 12-91.8-1.3-134.4-18s-84.9-37.4-130.9-40.6c-35.4-2.5-71.6 6-101.9 23.7-21.7 12.7-72.4 30.2-96.9 4.6-23.5-24.6-19.1-55.1-5.7-84.6z" opacity=".54" fill="url(#SVGID_1_)"/><g opacity=".54"><linearGradient id="SVGID_2_" gradientUnits="userSpaceOnUse" x1="329.261" y1="112.54" x2="338.026" y2="554.06"><stop offset=".005" stop-color="#a178b5"/><stop offset=".811" stop-color="#a178b5" stop-opacity="0"/></linearGradient><path d="M503.8 550.7c-35.9 0-71.5-11.8-100.6-23.2-7.6-3-15.3-6.2-22.8-9.2-35.5-14.5-72.2-29.6-111-32.3-36.2-2.5-73.1 6.1-103.9 24.2-25.8 15.1-75.6 29.8-99.8 4.6-20.8-21.6-22.7-50.1-5.9-86.9l.5.2-.5-.2c3.5-7.7 8-15.1 12.4-22.2 6.9-11.2 14-22.9 17.1-35.7 5.5-23.4-2.6-45.8-11.3-69.5-4.7-12.9-9.6-26.3-12-39.7-5.9-33.1 4.1-68.3 26.8-94.1 22.6-25.8 57.2-41.6 92.6-42.3 19.3-.4 38.6 3.6 57.4 7.3 24.3 4.9 49.5 10 74.1 5.5 12.7-2.3 24.8-7.2 36.5-11.9 8.2-3.3 16.6-6.7 25.2-9.2 22.6-6.7 46-7 65.9-1 22.2 6.7 40.7 21.7 49.4 40.2 8.1 17.2 8.1 36.7 8 55.5 0 19.3-.1 39.3 8.7 56.6 10.3 20.2 30.6 33.1 50.3 45.6 15.4 9.8 31.4 20 42.9 33.7 20 23.8 24.7 58.5 11.6 86.3-3.5 7.4-8.1 14.4-12.6 21.2-7.5 11.2-15.2 22.9-17.3 36-.5 3-.7 6.1-.9 9.1-.3 4.5-.6 9.1-1.8 13.5-2 7.1-10.1 24.6-41.7 33.2-12.4 3.3-24.9 4.7-37.3 4.7zM257 484.6c4.2 0 8.3.1 12.5.4 38.9 2.7 75.7 17.8 111.3 32.3 7.5 3.1 15.2 6.2 22.8 9.2 39 15.3 89.8 31.3 137.2 18.4 31.1-8.4 39-25.5 41-32.5 1.2-4.3 1.5-8.9 1.8-13.3.2-3 .4-6.2.9-9.2 2.2-13.4 10-25.1 17.5-36.4 4.5-6.8 9.1-13.7 12.6-21 12.9-27.5 8.4-61.7-11.4-85.3-11.4-13.6-27.3-23.7-42.6-33.5-19.8-12.6-40.2-25.6-50.6-46-8.9-17.5-8.9-37.6-8.9-57 0-18.7.1-38.1-7.9-55.1-8.6-18.2-26.8-33.1-48.8-39.7-19.7-6-42.9-5.6-65.3 1-8.5 2.5-17 5.9-25.1 9.2-11.8 4.7-24 9.6-36.7 12-24.8 4.6-50-.5-74.5-5.5-18.7-3.8-38-7.7-57.2-7.3-35.1.7-69.5 16.4-91.9 42C71.1 193 61.2 227.9 67 260.7c2.4 13.3 7.2 26.6 11.9 39.5 8.3 22.8 17 46.4 11.4 70.1-3.1 13-10.3 24.7-17.2 36-4.4 7.1-8.9 14.5-12.4 22.1-16.6 36.5-14.7 64.5 5.7 85.8 13.7 14.3 34.9 14.5 50.2 12.2 19.2-2.9 37.5-10.6 48.3-17 27.6-16.1 59.8-24.8 92.1-24.8z" fill="url(#SVGID_2_)"/></g><path d="M455.6 260.1c1.9-.9 3.9-1.3 6-1.2 7.4.2 30.2.8 37.8 1.1 7 .3 16.7-2.4 21.3-13.7 1.4-3.5 5.3-15.6 5.4-20.9.7-22.5-24.1-16.4-24.1-16.4s-36.8-1.3-44.3-1.7c-7.6-.3-7.5-6.8-7.5-6.8s-.5-6.8 7.2-8.4c13.6-2.8 33.6-14.9 40.4-39.3.3-1.2 3.8-13.9 4-15.2 4.3-23.7-14.5-39.4-43.7-47.5C429 82 403.8 85 396.5 112c-.4 1.5-4.6 16.9-4.8 18.4-5.1 29.6 13.9 46.3 17 48.7 3.1 2.4 3.8 5.6 1.2 10.5-1.3 2.5-3.8 3-6.1 2.9-2-.1-4-.7-5.7-1.7-4.1-2.3-15.9-9-34.1-19-23-12.7-32 5.5-32 5.5l-1.8-2.5c-1.2 2.3-4.7 14.8-5 16.9-1.4 9.1 4.1 16.6 7.1 19.9 1 1.1 2.1 2 3.4 2.7 6.1 3.4 27.3 15.3 33.4 18.8 7.1 4.1 9.7 8.8 8.2 17.2-1.5 8.4-8 12.9-8 12.9-7.1 5.1-44.7 31.3-51 35.4-5.4 3.5-4.8-6.2-6.8-1.6-.3.7-3.7 13.8-4 14.7-2.3 6.1-.3 10.8.7 13.9 1 3.1 5 8.5 8.1 12.5 3.2 4 9 6.9 14.9 7.6 5.9.8 12.1-1.9 14.6-3.6 2.5-1.7 39.2-27.9 41.7-29.7 2.5-1.8 5-4.4 10.6-3.2 4.6 1 6.3 5.2 6.8 6.7.2.5.3 1 .5 1.4 2.2 5 13.4 30.5 19.5 43.5 6.8 14.5 15.5 20 35.8 11.9 8.5-3.4 12.1-8.4 13.4-13 .5-1.9 4.5-15.2 4.5-16.9-.1-4.1-5.3 4.5-5.3 4.5s-22.8-49.5-26.1-58.9c-3.3-9.4-2.1-13.7-.4-19 1.5-5.1 5.7-7.9 8.8-9.3z" fill="#fa6324"/><path d="M459.7 245.4c1.9-.9 3.9-1.3 6-1.2 7.4.2 30.2.8 37.8 1.1 9.1.4 23-4.4 23.7-26.8.7-22.4-21.2-24.1-21.2-24.1s-36.8-1.3-44.3-1.7c-7.6-.3-7.5-6.8-7.5-6.8s-.5-6.8 7.2-8.4c13.6-2.8 33.6-14.9 40.4-39.3 6.8-24.4-9-54.1-39.6-62.6-30.7-8.5-61.3 10.7-66.4 40.3-5.1 29.6 13.9 46.3 17 48.7 3.1 2.4 3.8 5.6 1.2 10.5-1.3 2.5-3.8 3-6.1 2.9-2-.1-4-.7-5.7-1.7-4.1-2.3-15.9-9-34.1-19-23-12.7-32 5.5-32 5.5l-4.5 7.8c-6.5 12 1.1 22.5 4.7 26.5 1 1.1 2.1 2 3.4 2.7 6.1 3.4 27.3 15.3 33.4 18.8 7.1 4.1 9.7 8.8 8.2 17.2-1.5 8.4-8 12.9-8 12.9-7.1 5.1-44.7 31.3-51 35.4-6.3 4.1-8.5 7-10.8 13.1-2.3 6.1-.3 10.8.7 13.9 1 3.1 5 8.5 8.1 12.5 3.2 4 9 6.9 14.9 7.6 5.9.8 12.1-1.9 14.6-3.6 2.5-1.7 39.2-27.9 41.7-29.7 2.5-1.8 5-4.4 10.6-3.2 4.6 1 6.3 5.2 6.8 6.7.2.5.3 1 .5 1.4 2.2 5 13.4 30.5 19.5 43.5 6.8 14.5 15.5 20 35.8 11.9 20.3-8.1 12.5-25.4 12.5-25.4s-22.8-49.5-26.1-58.9c-3.3-9.4-2.1-13.7-.4-19 1.7-5.2 5.9-8 9-9.5z" fill="#f90"/><path d="M447.4 74.5c4.9 0 9.7.7 14.5 2 14.2 3.9 26 12.8 33.3 24.9 6.9 11.4 8.9 24.7 5.7 36.5-7.1 25.5-28.2 36.2-39.6 38.6-6.8 1.4-8.2 6.8-8 9.4 0 .7.5 7.4 8.5 7.8 7.5.3 44 1.7 44.3 1.7.9.1 21 2 20.3 23.1-.8 24-16.9 25.9-21.8 25.9h-.9c-7.7-.3-30.9-.9-37.8-1.1h-.4c-2.1 0-4.2.4-6.1 1.3-3.4 1.5-7.7 4.6-9.5 10.2-1.6 5-3.1 9.7.4 19.6 3.3 9.3 25.2 56.9 26.2 59 0 .1 2.9 6.6.2 13.3-1.9 4.6-6 8.3-12.2 10.7-6.2 2.5-11.3 3.7-15.6 3.7-8.4 0-13.9-4.4-18.9-15.1-6.1-13-17.3-38.5-19.5-43.5-.2-.4-.4-.9-.5-1.3-.6-1.9-2.5-6.3-7.5-7.4-1-.2-2-.3-2.9-.3-3.6 0-5.7 1.6-7.6 3l-.9.6c-.6.4-2.8 2-5.9 4.2-11 7.8-33.9 24.2-35.8 25.5-2.1 1.4-6.9 3.5-11.8 3.5-.7 0-1.4 0-2-.1-5.8-.8-11.4-3.6-14.3-7.3-4.4-5.6-7.2-9.8-8-12.2-.1-.3-.2-.5-.3-.8-1-3-2.4-7.1-.5-12.4 2.2-6.1 4.5-8.8 10.4-12.6 6.2-4 43.4-30 51-35.4.3-.2 6.8-4.8 8.4-13.5 1.6-8.5-1-13.8-8.7-18.2-6.1-3.5-27.1-15.3-33.4-18.8-1.2-.7-2.3-1.5-3.2-2.5-1.9-2.1-4.5-5.6-6-9.9-1.8-5.3-1.3-10.5 1.4-15.4l4.5-7.8v-.1c0-.1 4.8-9.4 15.9-9.4 4.5 0 9.4 1.5 14.6 4.4 18.2 10 29.9 16.6 34.1 19 2 1.1 4.1 1.8 6.2 1.9h.6c3 0 5.3-1.2 6.4-3.5 2.6-5.2 2.2-8.9-1.5-11.8-2.2-1.8-21.7-18.1-16.6-47.7 2-11.7 8.3-22.3 17.6-29.9 9.4-7.7 21.1-11.8 33.2-11.8m0-1c-25.1 0-47.4 17.5-51.6 42.4-5.1 29.6 13.9 46.3 17 48.7 3.1 2.4 3.8 5.6 1.2 10.5-1.2 2.3-3.4 2.9-5.5 2.9h-.5c-2-.1-4-.7-5.7-1.7-4.1-2.3-15.9-9-34.1-19-6-3.3-11-4.5-15.1-4.5-11.9 0-16.8 10-16.8 10l-4.5 7.8c-6.5 12 1.1 22.5 4.7 26.5 1 1.1 2.1 2 3.4 2.7 6.1 3.4 27.3 15.3 33.4 18.8 7.1 4.1 9.7 8.8 8.2 17.2-1.5 8.4-8 12.9-8 12.9-7.1 5.1-44.7 31.3-51 35.4-6.3 4.1-8.5 7-10.8 13.1-2.3 6.1-.3 10.8.7 13.9 1 3.1 5 8.5 8.1 12.5 3.2 4 9 6.9 14.9 7.6.7.1 1.5.1 2.2.1 5.2 0 10.2-2.2 12.4-3.7 2.5-1.7 39.2-27.9 41.7-29.7 2.1-1.5 4.1-3.5 7.9-3.5.8 0 1.7.1 2.7.3 4.6 1 6.3 5.2 6.8 6.7.2.5.3 1 .5 1.4 2.2 5 13.4 30.5 19.5 43.5 4.7 9.9 10.2 15.6 19.8 15.6 4.4 0 9.6-1.2 16-3.7 20.3-8.1 12.5-25.4 12.5-25.4s-22.8-49.5-26.1-58.9c-3.3-9.4-2.1-13.7-.4-19 1.7-5.3 5.8-8.1 8.9-9.6 1.8-.8 3.7-1.2 5.7-1.2h.3c7.4.2 30.2.8 37.8 1.1h1c9.1 0 22.1-5.2 22.8-26.8.7-22.4-21.2-24.1-21.2-24.1s-36.8-1.3-44.3-1.7c-7.6-.3-7.5-6.8-7.5-6.8s-.5-6.8 7.2-8.4c13.6-2.8 33.6-14.9 40.4-39.3 6.8-24.4-9-54.1-39.6-62.6-5.2-1.3-10.2-2-15-2z" fill="#fab538"/><path class="st0" d="M547 127.2l.9 6.3c0 .1.1.2.2.2l6.3.9c.3 0 .3.5 0 .5l-6.3.9c-.1 0-.2.1-.2.2l-.9 6.3c0 .3-.5.3-.5 0l-.9-6.3c0-.1-.1-.2-.2-.2l-6.3-.9c-.3 0-.3-.5 0-.5l6.3-.9c.1 0 .2-.1.2-.2l.9-6.3c0-.3.4-.3.5 0zM179.5 380.8l.9 6.3c0 .1.1.2.2.2l6.3.9c.3 0 .3.5 0 .5l-6.3.9c-.1 0-.2.1-.2.2l-.9 6.3c0 .3-.5.3-.5 0l-.9-6.3c0-.1-.1-.2-.2-.2l-6.3-.9c-.3 0-.3-.5 0-.5l6.3-.9c.1 0 .2-.1.2-.2l.9-6.3c0-.3.5-.3.5 0zM520.9 165.9l.9 6.3c0 .1.1.2.2.2l6.3.9c.3 0 .3.5 0 .5l-6.3.9c-.1 0-.2.1-.2.2l-.9 6.3c0 .3-.5.3-.5 0l-.9-6.3c0-.1-.1-.2-.2-.2l-6.3-.9c-.3 0-.3-.5 0-.5l6.3-.9c.1 0 .2-.1.2-.2l.9-6.3c0-.3.5-.3.5 0zM146.4 391l.9 6.3c0 .1.1.2.2.2l6.3.9c.3 0 .3.5 0 .5l-6.3.9c-.1 0-.2.1-.2.2l-.9 6.3c0 .3-.5.3-.5 0l-.9-6.3c0-.1-.1-.2-.2-.2l-6.3-.9c-.3 0-.3-.5 0-.5l6.3-.9c.1 0 .2-.1.2-.2l.9-6.3c0-.3.4-.3.5 0zM211.4 81.4l.9 6.3c0 .1.1.2.2.2l6.3.9c.3 0 .3.5 0 .5l-6.3.9c-.1 0-.2.1-.2.2l-.9 6.3c0 .3-.5.3-.5 0l-.9-6.3c0-.1-.1-.2-.2-.2l-6.3-.9c-.3 0-.3-.5 0-.5l6.3-.9c.1 0 .2-.1.2-.2l.9-6.3c0-.3.4-.3.5 0zM198.5 97.1l.6 4.2c0 .1.1.1.2.2l4.2.6c.2 0 .2.3 0 .4l-4.2.6c-.1 0-.1.1-.2.2l-.6 4.2c0 .2-.3.2-.4 0l-.6-4.2c0-.1-.1-.1-.2-.2l-4.2-.6c-.2 0-.2-.3 0-.4l4.2-.6c.1 0 .1-.1.2-.2l.6-4.2c.1-.2.4-.2.4 0zM557.7 184.5l1.5 10.2c0 .2.2.3.4.4l10.2 1.5c.5.1.5.8 0 .9l-10.2 1.5c-.2 0-.3.2-.4.4l-1.5 10.2c-.1.5-.8.5-.9 0l-1.5-10.2c0-.2-.2-.3-.4-.4l-10.2-1.5c-.5-.1-.5-.8 0-.9l10.2-1.5c.2 0 .3-.2.4-.4l1.5-10.2c.1-.5.9-.5.9 0zM182.1 420.8l1.5 10.2c0 .2.2.3.4.4l10.2 1.5c.5.1.5.8 0 .9l-10.2 1.5c-.2 0-.3.2-.4.4l-1.5 10.2c-.1.5-.8.5-.9 0l-1.5-10.2c0-.2-.2-.3-.4-.4l-10.2-1.5c-.5-.1-.5-.8 0-.9l10.2-1.5c.2 0 .3-.2.4-.4l1.5-10.2c.1-.5.9-.5.9 0z"/><g><ellipse cx="329.2" cy="563.5" rx="80.8" ry="5.8" opacity=".15" fill="#14001f"/><path class="st8" d="M256.9 509.7l.8 19.5v6.1l11.1-4.3 5.9-14.7-2.4-9.6-5-5.1z"/><path class="st8" d="M269.2 508.3c.2-.4.4-.9.5-1.5.8-4.4-1.6-8-2.4-12.2-2.3-11.4-2.2-13.1-4.6-24.6 1.6 14.9.8 20.2 2.5 35.1 1.7-5 3.6-9 2.8-14.2-.8-5.5-1.6-11-2.4-16.6-3.9-30.2-.6-24.9-7.6-54.5-3.7-15.3-10.6-31.4-19.5-44.4-2.2-3.2-5.3-5.9-9-7 1.1 1.5.9 1.6-.1 0-.7-.2-1.6-.4-2.3-.5-7.1-.9-13.6 4.8-15.7 11.6-5.2 16.9 10.3 41.2 16.5 56.3 12.5 30.7 17.2 25.7 25.6 58 1 3.5 1.9 7 2.6 10.6.3 1.8.5 3.4.7 5.2.3 2.2.1 4.7 1.7 6.4 1 1 2.5 1.7 4 1.5 1.5-.2 2.8-1.2 3.4-2.6.2-.6.3-1 .4-1.6.3-2 2-3.2 2.9-5z"/><path class="st9" d="M270.2 504.3c-.6-3.3-1.1-6.8-1.7-10.1-1-6.6-1.9-13.2-2.9-19.9-3.9-30.2-.6-24.9-7.6-54.5-3.2-12.9-7.6-25.1-14.4-36.8l-.7.6c-1.5 2.3-.3 7.3 1.5 11.4 14.6 34.3 14.7 48 20.4 84.8 1.1 11.5.9 13.5 5.4 24.5z"/><path class="st8" d="M243.5 391.9c1.3-7.5 4.8-13 8.8-20.1.9-1.6 1.9-3.2 3.1-4.8 11.7-16.4 22.9-32.8 33.7-49.6 8.6-13.4 13.4-33.3 8.8-49.4-.6-3.7 1.5-4.2-.5-7.3-3.8-6-11.2-9.1-18.3-8.8-15.8.6-22.9 16.4-30.7 28.7-9.7 15.3-17.2 31.9-23 50.5-5.2 16.8-8.3 32-14.1 48.5"/><path class="st10" d="M255.3 535v.3c-.1.8-.3 1.7-.1 2.6.2.8.6 1.7 1.4 2 1 .5 2.1.1 3.1-.3 2.8-1.3 5.2-3.3 7.1-5.7 2.2-2.7 3.8-5.4 4.8-8.8.7-2.5 1.3-5 2.4-7.4 1-2.1 2.3-4.1 3.1-6.3.1-.4.3-.9.3-1.3.1-.8.1-1.6-.1-2.4-.1-.3-.3-.6-.5-.8-.6-.7-1.5-1.1-2.4-1.4-.9-.3-1.9-.6-2.8-.8l-1.5-.3c1.6 1.2 1.5 3.5 1.4 5.3-.2 7.3-2.3 14.8-7.9 19.8-.8.7-1.6 1.3-2.5 1.7-1.6.6-3.5.5-3.4-1.6 0-1 0-2.2.4-3.2-1.2 2.7-2.3 5.6-2.8 8.6z"/><path class="st8" d="M405 455.2l14.9 12.6 4.5 4.2 4.4-11.1-6.9-14.3-8.6-4.7-7.2.2z"/><path class="st8" d="M412.4 445.2c-.2-.5-.4-.9-.8-1.4-2.8-3.6-7-4.3-10.6-6.5-10-6-11.2-7.3-21.2-13.2 12.1 8.9 15.4 13 27.5 21.9-2.5-4.6-4.2-8.8-8.5-11.7-4.6-3.2-9.2-6.3-13.8-9.5-24.9-17.5-18.7-16.5-45.3-31.3-13.8-7.7-30.3-13.4-45.9-15.7-3.9-.6-7.9-.1-11.2 1.9 1.8.2 1.8.4-.1.1-.7.3-1.3.9-1.9 1.4-5.4 4.6-5.7 13.3-2.1 19.4 8.9 15.2 37.3 20.3 52.6 26 31 11.6 30.6 4.7 60 20.4 3.2 1.7 6.5 3.3 9.6 5.3 1.6 1 2.9 1.9 4.3 3 1.8 1.3 3.5 3.1 5.9 3.1 1.5-.1 3-.7 3.8-2 .8-1.3 1-2.9.4-4.3-.3-.5-.5-.9-.9-1.3-1.4-1.7-1.1-3.7-1.8-5.6z"/><path class="st9" d="M410.1 441.8c-2.8-1.8-5.7-3.8-8.5-5.6-5.5-3.7-11-7.5-16.6-11.4-24.9-17.5-18.7-16.5-45.3-31.3-11.6-6.4-23.6-11.4-36.8-14.3v.9c.7 2.6 5.2 5.2 9.3 6.6 35.2 12.5 45.3 21.6 76.2 42.5 9.2 7 10.5 8.4 21.7 12.6z"/><path class="st8" d="M308.6 394.6c6.2-29.7 12.9-58.9 20.3-88.3 3.9-15.5-18.3-25.9-27.8-39.8-1.7-3.3.1-4.4-2.8-6.8-5.5-4.4 6.9-14.9.3-12.4-14.8 5.6-21 24.5-24.4 38.7-4.3 17.5-2.8 35.7-1.2 53.5 1.5 17.6 3.3 35.4 3.1 53"/><path class="st9" d="M278.8 352.8c5.9-4.7 13.5-6.2 20.9-7.4 3.9-.6 8-.6 11.9-1.2 2.9-.4 5.4-1.5 8.4-1.2-.5-.1-5 19.8-5.4 21.7-1.6 6.9-2.9 13.9-3.8 20.9-.9.2-1.5-.8-1.8-1.7-2.8-6.8-7.1-10.8-14-13.3-3.2-1.1-6.5-1.8-9.9-1.9-.8 0-9.4.3-9.3 1.1-.4-3.4-.5-6.7-.6-10.1 0-1.1 0-2.2.4-3.2.4-1.1 1.3-2 2.2-2.8.2-.2.6-.6 1-.9z"/><path class="st10" d="M422.6 473.6l.2.2c.5.7 1.1 1.4 1.8 1.8s1.7.7 2.5.3c1-.4 1.5-1.5 1.9-2.5 1-2.9 1.1-6.1.6-9.1-.5-3.4-1.4-6.5-3.2-9.5-1.3-2.2-2.8-4.4-3.8-6.8-.9-2.1-1.5-4.5-2.6-6.5-.2-.4-.5-.8-.7-1.1-.5-.6-1.1-1.2-1.9-1.5-.3-.1-.6-.2-.9-.2-.9 0-1.8.3-2.6.8-.9.5-1.7 1-2.5 1.5-.4.3-.8.6-1.3.9 1.9-.4 3.6 1.3 4.8 2.5 5.2 5.1 9.3 11.8 9.2 19.2 0 1-.1 2-.5 3-.6 1.6-2 2.9-3.5 1.4-.7-.7-1.7-1.5-2.1-2.4 1.3 2.8 2.7 5.5 4.6 8z"/><path class="st8" d="M250.2 100.5c-2.4-.7-5.3-.1-7 1.7-1.4 1.4-1.9 3.4-2.3 5.4-.8 5 .9 10.2 1.6 15.2 1.4 9.8 2.4 19.6 5 29.2.9 3.6 2.2 7.3 4.4 10.2 1 1.3 2.1 2.4 3.4 3.2 2 1.2 4.1 1.9 6.3 1.7 2.3-.2 3.9-1.2 5.1-2.6-2.5-21.4-7.8-41.8-13.3-62.6-.9-.6-2-1.1-3.2-1.4z"/><path class="st9" d="M268.3 154.5c-1.6-7.7-3.3-15.3-4.9-23-.1-.2-.1-.5-.1-.7-1.4-6.6-3.2-12.6-4.7-19.6-.7-3.5-2.3-7-5.2-9.1 5.4 20.8 10.8 41.2 13.3 62.6 2.1-2.7 2.3-6.9 1.6-10.2z"/><path class="st9" d="M268.3 154.5c1.1 5.1 0 12.2-6.6 12.7-8.3.7-10.7-7-9.7-13.9 1-6.8 1.8-13.4 2.3-20.2.4-6.6 3.3-13.8 5-20.2 1.7 6.4 2.7 13 4.1 19.4 1.6 7.4 3.3 14.8 4.9 22.2z"/><path class="st9" d="M242.8 56.9c4.1 21.8 10.1 42.3 15.2 62.8.8-2 1.2-4.2 1-6.1-.3-5.7-2.6-11.8-4.2-16.5-2.5-7.5-5.3-14.8-7.3-22.4-2.3-8.5-4.3-17.5-5.2-26.2l-.3-3c-.5 3.7-.2 7.7.8 11.4z"/><path class="st8" d="M242.8 56.9c-1-3.6-1.3-7.7-.7-11.5-.2-1.3-.5-2.6-1.2-3.8-1.2-2-3.8-3.5-5.9-2.5-3.1 1.4-2.6 5.2-2.7 7.9-.1 3.6.4 7.3.6 10.9 1.5 20.2 1.3 41.1 8.2 60.3.8 2.3 1.8 4.7 3.7 6.4 5.9 5.4 11.1.7 13.2-5-5.1-20.4-11.1-40.9-15.2-62.7z"/><path class="st10" d="M274.6 173.2c-1-4.5-2.5-8.9-3.9-12.9-1.3-3.8-2.9-7.4-4-11.2-4.6.4-9.4 1.8-13.9 3.7-2.9 1.2-5.7 2.6-8.2 4 .4 1 .8 2 1 2.6 3 8.5 6.3 14.8 9.3 23.2.9 2.5 1.9 5.2 3.8 7.2 1.2 1.3 3.1 1.9 4.5 3 1.8 1.4 6.6 4.9 8.6 2.1 4.6-6.4 4.5-14.2 2.8-21.7z"/><path class="st8" d="M232.7 52.3c-.3-1.3-.4-2.7-.8-4-.2-.9-.8-1.8-1.1-2.7-.8-2-1.2-4.1-1.5-6.2-.6-4.1-1.3-6.8 3.2-8.9 1.2-.6 4.1-1.2 5.4-1.4 2.5-.5 4.2-2.2 6.4-.7 1.1 2.5 2.8 5.1 3.2 7.5.6 3.1-.3 4.5-2.3 6.7-2 2.1-4 2.2-2.9 6.2"/><path class="st10" d="M308.7 197.6z"/><path class="st9" d="M259.3 359.4c-1.3-1.4-7.3-2.7-8.5-3.2-4-1.4-8.1-2.9-12.1-4.3l-16.2-5.7-1.4.2s-3.7 13.7-2.6 9.7c.2-.6 12 1 13.7 1.7 8.4 3.5 14.8 10.5 12.6 20.4-1.1 5-3.2 9.8-.7 14.8.3.6.7.1 1.2-.3 1.5-1.2 4.9-9.8 6-12.3 2.9-6.3 5.6-12.7 8.1-19.1.2-.5.4-1 .3-1.5-.1-.2-.2-.3-.4-.4z"/><path class="st11" d="M309.4 195.8c-.3.6-.5 1.2-.7 1.8.2-.6.5-1.2.7-1.8z"/><path class="st12" d="M322.5 316.4c-3.4-5.8-4.1-12.8-10-17-9.8-7-22.4-7.3-33.8-8.4-11.5-1.2-25.2-3.9-34.5-10.9.4-1.2.8-2.4 1.3-3.6-5.3 8.4-9.1 18.1-11.9 26.8-1.5 4.8-14 45.3-14 45.3 7 4.2 15.4 8.9 23.1 11.6 8.7 3 17.6 1.6 26.6 3.1 10.4 1.7 20 5.9 30.7 4.7 12.1-1.4 24.7-5.4 34-13.5 3.2-2.8 7.6-6.7 11.9-7.1 4.3-.4 4.4-.5 8.1-2.7 2.3-1.4 4.1-3.9 4.5-6.5-3.1-.8-11.3-3.7-14.2-4.4-9.5-2.5-16.5-8.5-21.8-17.4z"/><path class="st13" d="M318.1 272.6c-3.2-4.2-7-7.8-11.5-10.3 4.4 2.5 8.2 6.1 11.5 10.3z"/><path class="st12" d="M357.7 333.7c-1-1.5-2.6-2.4-4.2-3.2-5.4-2.6-12.5-4.5-16.2-9.6-1.8-2.4-1.9-5.8-2.7-8.7-1.2-4.6-2.5-9.1-4-13.6-1-2.9-2-6-3.3-9-2-5-4.5-10-7.5-14.4-.6-.9-1.2-1.8-1.9-2.6-3.2-4.2-7-7.8-11.5-10.3-1.8-1-3.7-1.8-5.8-2.5-1.1-.3-2-.6-2.9-.9-1.3-.4-2.6-.7-3.9-1-1.3-.3-2.7-.5-4.3-.6-6.1-.4-12.2-1-18.3-.5-6.1.5-9.3 2.2-13.9 5.9-4.7 3.8-8.6 8.6-11.9 13.8-5.3 8.4-9.1 18.1-11.9 26.8-1.3 4-12.1 32.3-15.5 41.2-.6 1.5 0 3.3 1.4 4.1 6.9 4.1 16.3 9.2 23.2 11.6 8.7 3 17.6 1.6 26.6 3.1 10.4 1.7 20 5.9 30.7 4.7 12.4-1.4 25.2-5.6 34.5-14 3.4-3 9.8-6.1 14.3-6.9 1.8-.3 2.6-.8 5.2-2.4 2.3-1.4 4.1-3.9 4.5-6.5.4-1.6.2-3.2-.7-4.5z"/><path class="st13" d="M294 257.9c1.3.3 2.5.6 3.9 1-1.4-.4-2.6-.8-3.9-1z"/><path d="M326.2 357.7v-13.8h14v5.8c.5-.3 1-.6 1.5-.8V344h13.5c.7-.6 1.4-1.3 1.9-2.1V333c-.4-.5-.9-.9-1.5-1.3v10.5h-14v-13.8h7c-1.2-.5-2.4-1-3.5-1.6h-3.4v-1.9c-.5-.3-1-.7-1.5-1v3h-14v-13.8h8.6c-.1-.3-.1-.5-.2-.7-.1-.3-.2-.6-.2-.8h-8.2v-13.8h4c-.2-.5-.4-1.1-.5-1.6h-3.5v-9c-.5-1.1-.9-2.1-1.5-3.1v12.2h-14v-13.8H324c-.3-.5-.6-1.1-.9-1.6h-12.3v-12.1c-.1 0-.1.1-.2.1-.5.4-.9.8-1.3 1.2v10.8h-7c-.2.5-.4 1.1-.6 1.6h7.7v13.8H295.5v-13.8h4.2c-.3-.5-.7-1.1-1.1-1.6h-3.1v-4.1c-.5-.6-1-1.1-1.5-1.6v5.7h-14v-13.8h2.6c-.9-.4-1.9-.7-2.9-1.1-.6-.2-1.2-.4-1.8-.5h-13.4v-2.2c-.5 0-1-.1-1.5-.1v2.3h-8.4c-.5.5-1.1 1-1.6 1.6h10v13.8h-14v-9.2c-.5.6-1 1.3-1.5 2v7.3H243c-.3.5-.6 1.1-.9 1.6h5.4v13.8h-11.6c-.2.5-.4 1.1-.6 1.6h12.1v13.8h-14v-8.5c0 .1-.1.3-.1.4-.2.7-.7 2.2-1.3 4.2v3.9h-1.2c-.2.5-.3 1-.5 1.6h1.7v13.8h-7.5c-.1.2-.4 1.1-.6 1.6h8.1v13.8h-13.4c-.2.6-.5 1.1-.6 1.6h14V356c.5.2 1 .5 1.5.7v-12.5h14V358h-11.2c1.3.6 2.5 1.1 3.8 1.6h7.4v2.2c.5.1 1 .2 1.5.2v-2.5h14v3.4c.5 0 1 .1 1.5.1v-3.5h14v6c.5.1 1 .2 1.5.4v-6.4H293.9v5.1h.1v3.7h1.5v-8.9h13.9v7.1c.5-.1 1-.2 1.5-.4v-1.4h.1v-5.3h13.9v1.5c.5-.3 1-.5 1.5-.8v-.7h1.1c.8-.5 1.7-1 2.5-1.6h-3.8zm0-29.3h14v13.8h-14v-13.8zm-78.5 13.8h-14v-13.8h14v13.8zm0-15.4h-14V313h14v13.8zm15.4 30.9h-14v-13.8h14v13.8zm0-15.5h-14v-13.8h14v13.8zm0-15.4h-14V313h14v13.8zm0-15.4h-14v-13.8h14v13.8zm0-15.5h-14v-13.8h14v13.8zm15.5 61.8h-14v-13.8h14v13.8zm0-15.5h-14v-13.8h14v13.8zm0-15.4h-14V313h14v13.8zm0-15.4h-14v-13.8h14v13.8zm0-15.5h-14v-13.8h14v13.8zm0-15.4h-14v-13.8h14v13.8zm15.3 77.2H280v-13.8h13.9v13.8zm0-15.5H280v-13.8h13.9v13.8zm0-15.4H280V313h13.9v13.8zm.1-15.4h-14v-13.8h14v13.8zm0-15.5h-14v-13.8h14v13.8zm15.3 61.8h-13.9v-13.8h13.9v13.8zm0-15.5h-13.9v-13.8h13.9v13.8zm0-15.4h-13.9V313h13.9v13.8zm0-15.4h-13.9v-13.8H309.2v13.8zm15.5 46.3h-13.9v-13.8h13.8v13.8zm0-15.5H311v-13.8h13.9v13.8zm0-15.4H310.9V313h13.9v13.8zm0-15.4h-13.9v-3c0-.1-.1-.2-.1-.3v-10.6h14v13.9z" fill="#8533ad"/><path d="M357.7 333.7c-1-1.5-2.6-2.4-4.2-3.2-5.4-2.6-12.5-4.5-16.2-9.6-1.8-2.4-1.9-5.8-2.7-8.7-1.2-4.6-2.5-9.1-4-13.6-1-2.9-2-6-3.3-9-2-5-4.5-10-7.5-14.4-.6-.9-1.2-1.8-1.9-2.6-3.2-4.2-7-7.8-11.5-10.3-1.8-1-3.7-1.8-5.8-2.5-1.1-.3-2-.6-2.9-.9-1.3-.4-2.6-.7-3.9-1-1.3-.3-2.7-.5-4.3-.6-6.1-.4-12.2-1-18.3-.5-6.1.5-9.3 2.2-13.9 5.9-4.7 3.8-8.6 8.6-11.9 13.8-.4 1.2-.9 2.4-1.3 3.6 9.3 7 23 9.7 34.5 10.9 11.4 1.1 24 1.4 33.8 8.4 5.9 4.2 6.6 11.2 10 17 5.2 8.9 12.3 14.9 21.8 17.3 2.9.7 11.2 3.6 14.2 4.4.4-1.5.2-3.1-.7-4.4z" opacity=".5" fill="#461e5f"/><path class="st12" d="M318.5 91c-20.3-6.7-32.3 13.7-17.4 23.9 0 0 .3-1.7 4.7-2.7 2.7-.6 7-1 13.7-.5 9.5.6 14.6-3 17.4-7.2 1.6-2.5 2.5-5.4 2.8-8.3.1-1 1.1-5.7-.3-5.9-.7-.1-2.1.9-2.7 1.2-1.1.5-2.1.9-3.3 1.1-1.7.3-3.3.4-5 .4-3.4-.2-6.7-1-9.9-2z"/><path class="st10" d="M298 117.8c5.6-1.8 1.7-12.4-3.7-9.5"/><path class="st8" d="M329.7 108.2c-.6-1.2-1.5-2.3-2.7-3.3-2-1.5-4.8-2.1-7.1-1.1-1.8.8-3.1 2.4-4.1 4.1-2.7 4.3-3 9.8-4.3 14.7-2.5 9.6-5.2 19.1-6.5 29-.5 3.7-.8 7.6.2 11.1.4 1.6 1 3 1.9 4.3 1.4 1.9 3 3.3 5.2 4 1.9.6 3.6.5 5.1-.2 3.3-1.5 5.3-5.5 5.9-9.1 1.4-7.7 2.8-15.4 4.2-23.2 0-.2.1-.5.2-.7 1.2-6.6 1.8-12.8 3.1-19.9.5-3.3.5-6.8-1.1-9.7z"/><path class="st9" d="M326.7 131.9c-.7 4.1-2 8.2-3.4 12.3-3 8.9-4.4 17.8-6 26.7 3.3-1.5 5.3-5.5 5.9-9.1 1.4-7.7 2.8-15.4 4.2-23.2 0-.2.1-.5.2-.7 1.2-6.6 1.8-12.8 3.1-19.9.6-3.3.6-6.8-1-9.7-.7 7.7-1.6 15.7-3 23.6z"/><path class="st8" d="M340.6 46.9c-.3-2.3-2.2-4.7-4.5-4.5-3.4.2-4.4 3.8-5.5 6.3-1.4 3.4-2.4 6.9-3.6 10.3-6.2 19.3-14.4 38.5-15.2 59-.1 2.5-.1 5.1 1 7.3 3.7 7.8 11 4.4 15.1-.8 1-1.3 1.9-2.8 2.3-4.2 1.9-5.4 2-11.9 2.4-16.8.5-7.8.7-15.7 1.7-23.5.9-7 2-14.3 3.8-21.2.4-1.7.9-3.3 1.4-5 .7-2.3 1.5-4.6 1.1-6.9z"/><path class="st9" d="M327.9 124.5c1-1.3 1.9-2.8 2.3-4.2 1.9-5.4 2-11.9 2.4-16.8.5-7.8.7-15.7 1.7-23.5.9-7 2-14.3 3.8-21.2-7.2 20.8-7.1 43.2-10.2 65.7z"/><path class="st8" d="M338.4 56.1c2.8-3.9 4.2-6 5.6-10.6 1.2-3.9 2.3-6.6-1.8-9.3-1.1-.8-3.9-1.8-5.2-2.3-2.4-.9-3.8-2.8-6.2-1.7-1.5 2.3-3.5 4.6-4.3 6.9-1.1 2.9-.4 4.5 1.2 7 1.6 2.4 3.6 2.8 2 6.5"/><path class="st10" d="M323.7 163.3zM309.4 195.8c-.3.6-.5 1.2-.7 1.8.2-.6.5-1.2.7-1.8 0-.1.1-.1.1-.2-.1 0-.1.1-.1.2zM304.2 148.9s-2.6 5.5-5.1 12.6c-3.6 10.2-6.9 23.5-2 28.3.4.4.8.7 1.2 1 3.8-3.9 8.8-6.7 12.6-10.7 4.7-4.9 9.5-11.1 12.8-16.8-.2.3-.1.7.1 1l2.7-6.6c-8.9-6.3-22.3-8.8-22.3-8.8z"/><path class="st11" d="M308.1 199.5c.2-.6.4-1.3.6-1.9-.2.6-.4 1.2-.6 1.9zM323.7 163.3z"/><path class="st10" d="M326 261.5c2.1.3 4.1 1.3 5.5 2.9.1-.4.2-.9.2-1.3-.1-.7-.5-1.4-1-2-.1-.2-.3-.3-.5-.5-1.4-1.1-3.1-1.6-4.8-2.1-20.6-6.4-22-33.8-18.8-51.5.7-4.1 1.9-8.1 3.4-12 1.5-3.9 3.9-7.4 5.5-11.3.1-.2.2-.4.3-.7 3.6-8.3 6.1-14.5 7.9-18.6l2.7-6.6c-8.8-6.4-22.2-8.9-22.2-8.9s-1.1 2.4-2.5 6c-1.5 3.8-5.2 6.2-9.3 6.1h-2c-4.1 0-8.3.2-12.4.2-2.9 0-4.6-.6-7.1 1-6.2 4-10 10.1-13.8 16.2-2.5 4.1-4.6 8.3-6.7 12.5-1.5 3-2.9 6.2-3 9.6-.1 5.3 3.3 9.7 6 13.9 6.5 10.2 3.1 21.5.2 33.1-2.4 9.7-5.1 19.8-10.3 28.5-.3.5-.2 1.1.1 1.5 2.2 2.5 12 10.4 44.5 9.1 17-.7 31.3-6.3 42.2-19.6.7-.8 1.2-1.6 1.4-2.5-1.4-1.6-3.4-2.7-5.5-3"/><path class="st11" d="M266.7 149.2c-4.6.4-9.4 1.8-13.9 3.7.6 1.9.8 2.7 2.5 3.6 1.6.9 3.2 1.8 4.8 2.8.5.3.9.6 1.2 1.1.4.6.6 1.4.8 2.1.6 2.6 2.1 6.4 4.5 7.9 2.2 1.4 5.5 2.2 8 2.9-1-4.5-2.5-8.9-3.9-12.9-1.3-3.8-2.9-7.4-4-11.2z"/><path class="st8" d="M287.5 133.7v-2.4c0-3.3-1.9-3-4.4-2.3-3.6 1-13 2.7-12.4 8.3.1 1.1.9 2.3 1.1 3.5.2 1.5.4 3 .4 4.6 0 5.6.6 12.2-2.1 17.4-1.1 2-2.3 4.7-2 6.9.3 2.3 1.8 4.4 3.6 5.7 2.8 2 6.8 2.6 10.4 1.7 3.9-.9 7.9-3.2 9.1-7.2 1.3-4.2-1.3-5.9-2.7-10.6-1.4-4.5-1.1-8.9-1-13.6v-12z"/><path class="st9" d="M272.1 145.4c0 5.2.5 11.3-1.6 16.3 1.8-1 4.9-3.3 6.4-4.9 5.8-6.1 7.4-11.7 10-18.4.2-2.8.3-6.5-1.7-7.8-2.2-1.4-7.3-.4-9.6.6-2.2 1-5.2 3.6-4.9 6.1.1 1.1.9 2.3 1.1 3.5.2 1.5.3 3 .3 4.6z"/><path class="st11" d="M315.9 183c-.1.2-.2.5-.3.7-1.5 3.9-3.9 7.4-5.5 11.3-1.5 3.9-2.7 7.9-3.4 12-3.2 17.7-1.8 45.1 18.8 51.5 1.7.5 3.4 1 4.8 2.1l.5.5c.5.6.8 1.3 1 2 0 .4 0 .9-.2 1.3-1.4-1.6-3.4-2.6-5.5-2.9-6-.8-10.3-1.4-14.8-6-1.7-1.7-3.2-3.7-4.5-5.7-3.7-5.6-6-11.7-8.3-17.9-2.2-6-8.6-9.4-11-15.5-1.4-3.5-1.7-7.5-.5-11 1.2-3.4 3.6-6.2 6-8.9 5-5.6 11.9-11.2 11.9-19.4 0-2.1-.4-4.1 0-6.2.6-3.2 3.2-5.8 6.4-6.5 3.1-.6 6.8.4 9.1-1.7 1.9-1.7 4.2-2.4 5.7-4.5-.7 1-1 2.6-1.6 3.7-1.6 2.9-2.4 6.1-3.7 9.2-1.6 4.1-3.3 8-4.9 11.9z"/><g><path class="st11" d="M278.8 283c-10.9 0-22.3-2.2-32.3-7.6-.5-.3-.7-.9-.4-1.4.3-.5.9-.7 1.4-.4 23.4 12.8 56.6 6.8 70.1-3.2 5.6-4.1 8.7-10.3 8.7-10.4.3-.5.9-.7 1.4-.5.5.3.7.9.5 1.4-.1.3-3.3 6.7-9.4 11.2-8.1 6-23.5 10.9-40 10.9z"/></g><path class="st12" d="M252.4 116.1c-1.2 3.3-1 7.1.5 10.2 1 2 1.8 3.8 2.4 6 .4 1.5 1.3 3.2 2.8 3.5 8.3 1.9 11.6-14.4 12.2-19.7.4-2.9.9-5.7-2-7.5-1.8-1.2-4.2-1.3-6.4-.9-3.9.8-7.3 3.5-9 7.1-.2.5-.4.9-.5 1.3z"/><path class="st8" d="M284.7 145c.7-.6 1.3-1.2 1.9-1.9 4.7-4.9 8.9-10.7 7.4-17.8-1-5-4.5-8.5-8.8-11.7-4.5-3.3-6.4-4.9-11.8-6-4.8-1-9.8 1.1-13.2 4.4-4.2 4-5.2 9.7-5.4 15.2-.1 3.9-.1 7.8.6 11.7.7 3.8 2.2 7.6 4.8 10.5 2.3 2.5 5.7 4.4 9.2 3.7 5.7-1.1 11-4.2 15.3-8.1z"/><path class="st12" d="M260.4 103.5c-1.9 1.7-3.1 4.2-2.8 6.6.9 6.6 10.1 7.9 14.9 10.4 2.2 1.1 4 2.8 5.8 4.6 1.2 1.2 4.8 5.6 6.2 3 1.2-2.2 2.5-4.7 5.5-3.7 1.2.5 1.9 1.8 2 3.1.1 1.3-.3 2.6-.8 3.8-.8 1.9-4.7 9.1-3.2 10.7.4.5 1.2.6 1.9.5s1.2-.5 1.8-1c4.2-3.2 7.1-7.7 8.4-12.9 1.4-5.9.5-12.4-2.8-17.6-3.7-5.8-9.8-9.6-16.5-10.9-6.1-1.1-15.1-1.1-20.1 3.1-.2.2-.2.3-.3.3z"/></g></svg>