<svg xmlns="http://www.w3.org/2000/svg" width="68.419" height="35.389" viewBox="0 0 68.419 35.389"><defs><style>.a{fill:#68009e;}</style></defs><g transform="translate(-307.42 -215.693)"><g transform="translate(307.55 221.768)"><path class="a" d="M315.354,288.555h1.21a1.7,1.7,0,0,0,1.415-.89l5.01-8.878a1.341,1.341,0,0,0-.627-1.937l-1.332-.6a1.444,1.444,0,0,0-1.9.768l-3.146,6.318h-.047l-3.142-6.318a1.444,1.444,0,0,0-1.9-.768l-1.332.6a1.341,1.341,0,0,0-.628,1.937l5.011,8.878a1.7,1.7,0,0,0,1.414.89" transform="translate(-308.735 -276.134)"/></g><g transform="translate(329.462 221.768)"><path class="a" d="M538.34,288.555h1.21a1.7,1.7,0,0,0,1.414-.89l5.01-8.878a1.342,1.342,0,0,0-.628-1.937l-1.332-.6a1.443,1.443,0,0,0-1.9.768l-3.146,6.318h-.047l-3.143-6.318a1.444,1.444,0,0,0-1.9-.768l-1.332.6a1.341,1.341,0,0,0-.628,1.937l5.01,8.878a1.7,1.7,0,0,0,1.414.89" transform="translate(-531.721 -276.134)"/></g><g transform="translate(344.469 221.811)"><path class="a" d="M690.627,285.282a2.468,2.468,0,1,1,2.468-2.469,2.468,2.468,0,0,1-2.468,2.469m0-8.72a6.253,6.253,0,1,0,6.253,6.251,6.253,6.253,0,0,0-6.253-6.251" transform="translate(-684.375 -276.562)"/></g><g transform="translate(323.265 215.693)"><path class="a" d="M473.454,218.143a2.45,2.45,0,1,1-2.451-2.45,2.449,2.449,0,0,1,2.451,2.45" transform="translate(-468.553 -215.693)"/></g><g transform="translate(323.583 221.942)"><path class="a" d="M471.778,279.388a1.51,1.51,0,0,1,1.511-1.511h1.264a1.511,1.511,0,0,1,1.512,1.511v9.227a1.511,1.511,0,0,1-1.512,1.511h-1.264a1.51,1.51,0,0,1-1.511-1.511Z" transform="translate(-471.778 -277.877)"/></g><g transform="translate(307.577 245.944)"><path class="a" d="M310.871,522.158h-.385v1.27h.478c.121,0,.143.021.143.15v.385c0,.129-.014.15-.143.15h-1.8c-.136,0-.15-.014-.15-.15v-.385c0-.128.021-.15.15-.15h.364V519.9h-.364c-.128,0-.15-.021-.15-.15v-.385c0-.129.014-.15.15-.15h1.67a2.15,2.15,0,0,1,1.12.2,1.292,1.292,0,0,1,.542,1.142A1.514,1.514,0,0,1,310.871,522.158Zm-.086-2.227h-.3v1.434h.228c.628,0,.856-.2.856-.749C311.57,520.1,311.377,519.932,310.785,519.932Z" transform="translate(-309.015 -519.097)"/><path class="a" d="M344.106,524.114h-1.542c-.1,0-.121-.021-.121-.121v-.443c0-.1.022-.121.121-.121h.264l-.157-.614h-1.249l-.157.614h.271c.1,0,.121.021.121.121v.443c0,.1-.021.121-.121.121h-1.47c-.1,0-.121-.021-.121-.121v-.443c0-.1.022-.121.121-.121h.243l1.249-4.089c.036-.114.043-.121.157-.121h.742c.114,0,.121.007.157.121l1.22,4.089h.271c.1,0,.121.021.121.121v.443C344.227,524.092,344.206,524.114,344.106,524.114Zm-1.913-3.183c-.036-.157-.064-.314-.093-.485-.021-.15-.057-.364-.078-.507-.079.507-.114.735-.178.992l-.314,1.228h.964Z" transform="translate(-336.892 -519.097)"/><path class="a" d="M389.328,524.114h-.942c-.114,0-.114,0-.164-.1l-.963-1.92h-.385v1.335h.385c.128,0,.15.021.15.15v.385c0,.136-.021.15-.15.15h-1.677c-.136,0-.15-.014-.15-.15v-.385c0-.128.021-.15.15-.15h.364V519.9h-.364c-.128,0-.15-.021-.15-.15v-.385c0-.129.014-.15.15-.15h1.677a2.034,2.034,0,0,1,1.049.185,1.267,1.267,0,0,1,.614,1.2,1.3,1.3,0,0,1-.814,1.32l.863,1.506h.357c.1,0,.121.021.121.121v.443C389.449,524.092,389.427,524.114,389.328,524.114Zm-2.155-4.182h-.3v1.449h.228c.635,0,.863-.2.863-.763C387.964,520.1,387.772,519.932,387.172,519.932Z" transform="translate(-377.888 -519.097)"/><path class="a" d="M429.646,522.863a2.253,2.253,0,0,1-1.156.264,1.664,1.664,0,0,1-1.327-.471,3.046,3.046,0,0,1-.6-2.077c0-1.677.678-2.591,1.92-2.591a2.2,2.2,0,0,1,1.092.293.178.178,0,0,1,.1.178v.964c0,.1-.021.121-.121.121h-.535c-.093,0-.114-.021-.114-.121v-.564a1.189,1.189,0,0,0-.393-.057.683.683,0,0,0-.621.236,2.277,2.277,0,0,0-.321,1.37,3.383,3.383,0,0,0,.264,1.534.768.768,0,0,0,.785.371,1.364,1.364,0,0,0,.343-.036v-.6c0-.1.021-.121.121-.121h.528c.1,0,.121.021.121.121v1.035A.155.155,0,0,1,429.646,522.863Z" transform="translate(-415.003 -517.989)"/><path class="a" d="M464.678,524.114h-2.855c-.136,0-.15-.014-.15-.15v-.385c0-.128.021-.15.15-.15h.364V519.9h-.364c-.128,0-.15-.021-.15-.15v-.385c0-.129.014-.15.15-.15h2.855c.1,0,.121.021.121.121v1.12c0,.1-.021.121-.121.121h-.492c-.1,0-.121-.021-.121-.121v-.478h-.921v1.192h1.213c.136,0,.15.014.15.143v.471c0,.128-.021.15-.15.15h-1.213v1.413h.949v-.535c0-.1.021-.121.121-.121h.492c.1,0,.114.014.114.121v1.149C464.821,524.1,464.807,524.114,464.678,524.114Z" transform="translate(-446.661 -519.097)"/><path class="a" d="M499.615,524.114h-1.748c-.136,0-.15-.021-.15-.15v-.385c0-.128.021-.15.15-.15h.392V519.9h-.392c-.129,0-.15-.021-.15-.15v-.385c0-.129.014-.15.15-.15h1.748c.128,0,.15.021.15.15v.385c0,.129-.021.15-.15.15h-.4v3.525h.4c.128,0,.15.021.15.15v.385C499.765,524.092,499.744,524.114,499.615,524.114Z" transform="translate(-479.158 -519.097)"/><path class="a" d="M525.918,524.114h-.942c-.114,0-.114,0-.164-.1l-.963-1.92h-.385v1.335h.385c.128,0,.15.021.15.15v.385c0,.136-.021.15-.15.15h-1.677c-.136,0-.15-.014-.15-.15v-.385c0-.128.021-.15.15-.15h.364V519.9h-.364c-.128,0-.15-.021-.15-.15v-.385c0-.129.014-.15.15-.15h1.677a2.034,2.034,0,0,1,1.049.185,1.267,1.267,0,0,1,.614,1.2,1.3,1.3,0,0,1-.814,1.32l.864,1.506h.357c.1,0,.121.021.121.121v.443C526.039,524.092,526.017,524.114,525.918,524.114Zm-2.155-4.182h-.3v1.449h.228c.635,0,.863-.2.863-.763C524.554,520.1,524.362,519.932,523.762,519.932Z" transform="translate(-501.074 -519.097)"/><path class="a" d="M564.981,523.127q-1.745,0-1.742-2.591a2.764,2.764,0,0,1,.628-2.105,1.727,1.727,0,0,1,2.377.064,3.015,3.015,0,0,1,.528,2.005C566.772,522.242,566.165,523.127,564.981,523.127Zm.014-4.382c-.485,0-.749.642-.749,1.82,0,1.206.25,1.806.756,1.806s.764-.607.764-1.8C565.765,519.324,565.523,518.745,564.995,518.745Z" transform="translate(-538.238 -517.989)"/><path class="a" d="M618.507,524.114h-1.542c-.1,0-.121-.021-.121-.121v-.443c0-.1.022-.121.121-.121h.264l-.157-.614h-1.249l-.157.614h.271c.1,0,.121.021.121.121v.443c0,.1-.021.121-.121.121h-1.47c-.1,0-.121-.021-.121-.121v-.443c0-.1.021-.121.121-.121h.243l1.249-4.089c.036-.114.043-.121.157-.121h.742c.114,0,.121.007.157.121l1.22,4.089h.271c.1,0,.121.021.121.121v.443C618.628,524.092,618.607,524.114,618.507,524.114Zm-1.913-3.183c-.036-.157-.064-.314-.093-.485-.021-.15-.057-.364-.078-.507-.079.507-.114.735-.178.992l-.314,1.228h.964Z" transform="translate(-584.32 -519.097)"/><path class="a" d="M660.426,519.9h-.371v2.555a1.588,1.588,0,0,1-.435,1.3,1.806,1.806,0,0,1-1.363.478,1.555,1.555,0,0,1-1.363-.564,1.979,1.979,0,0,1-.278-1.213V519.9h-.364c-.128,0-.15-.021-.15-.15v-.385c0-.129.014-.15.15-.15h1.692c.121,0,.143.021.143.15v.385c0,.129-.021.15-.143.15h-.371v2.555c0,.478.036.635.171.785a.737.737,0,0,0,.578.221c.578,0,.814-.293.814-.992V519.9h-.364c-.128,0-.15-.021-.15-.15v-.385c0-.129.022-.15.15-.15h1.656c.128,0,.143.014.143.15v.385C660.569,519.882,660.547,519.9,660.426,519.9Z" transform="translate(-621.97 -519.097)"/><path class="a" d="M706.749,520.8h-.421c-.1,0-.121-.021-.121-.121v-.692h-.521v3.44h.485c.121,0,.143.021.143.15v.385c0,.136-.014.15-.143.15h-1.934c-.129,0-.143-.014-.143-.15v-.385c0-.128.021-.15.143-.15h.492v-3.44H704.2v.692c0,.1-.021.121-.121.121h-.421c-.1,0-.121-.021-.121-.121v-1.342c0-.1.021-.121.121-.121h3.09c.1,0,.121.021.121.121v1.342C706.871,520.781,706.849,520.8,706.749,520.8Z" transform="translate(-664.739 -519.097)"/><path class="a" d="M741.451,523.127q-1.745,0-1.741-2.591a2.764,2.764,0,0,1,.628-2.105,1.727,1.727,0,0,1,2.376.064,3.015,3.015,0,0,1,.528,2.005C743.243,522.242,742.636,523.127,741.451,523.127Zm.014-4.382c-.485,0-.749.642-.749,1.82,0,1.206.25,1.806.757,1.806s.764-.607.764-1.8C742.236,519.324,741.994,518.745,741.466,518.745Z" transform="translate(-697.354 -517.989)"/><path class="a" d="M781.74,524.114H780.8c-.114,0-.114,0-.164-.1l-.963-1.92h-.386v1.335h.386c.128,0,.15.021.15.15v.385c0,.136-.021.15-.15.15h-1.677c-.136,0-.15-.014-.15-.15v-.385c0-.128.021-.15.15-.15h.364V519.9h-.364c-.129,0-.15-.021-.15-.15v-.385c0-.129.014-.15.15-.15h1.677a2.034,2.034,0,0,1,1.049.185,1.267,1.267,0,0,1,.614,1.2,1.3,1.3,0,0,1-.814,1.32l.864,1.506h.357c.1,0,.121.021.121.121v.443C781.861,524.092,781.84,524.114,781.74,524.114Zm-2.155-4.182h-.3v1.449h.228c.635,0,.863-.2.863-.763C780.376,520.1,780.184,519.932,779.584,519.932Z" transform="translate(-731.739 -519.097)"/><path class="a" d="M822.384,524.114h-1.748c-.136,0-.15-.021-.15-.15v-.385c0-.128.021-.15.15-.15h.392V519.9h-.392c-.129,0-.15-.021-.15-.15v-.385c0-.129.014-.15.15-.15h1.748c.128,0,.15.021.15.15v.385c0,.129-.021.15-.15.15h-.4v3.525h.4c.128,0,.15.021.15.15v.385C822.534,524.092,822.513,524.114,822.384,524.114Z" transform="translate(-770.182 -519.097)"/><path class="a" d="M848.124,522.965l-.228,1.02c-.029.121-.036.128-.164.128h-2.691c-.1,0-.121-.021-.121-.121V523.4l1.991-3.426h-1.178v.592c0,.1-.021.121-.121.121h-.507c-.1,0-.121-.021-.121-.121v-1.227c0-.1.022-.121.121-.121h2.647c.136,0,.15.014.15.15v.642l-1.962,3.311h1.285l.121-.557c.014-.071.043-.1.086-.1a.4.4,0,0,1,.086.014l.521.114c.071.014.1.043.1.086A.4.4,0,0,1,848.124,522.965Z" transform="translate(-792.217 -519.097)"/><path class="a" d="M882.608,524.114h-1.541c-.1,0-.121-.021-.121-.121v-.443c0-.1.021-.121.121-.121h.264l-.157-.614h-1.249l-.157.614h.271c.1,0,.121.021.121.121v.443c0,.1-.022.121-.121.121h-1.47c-.1,0-.121-.021-.121-.121v-.443c0-.1.021-.121.121-.121h.243l1.249-4.089c.036-.114.043-.121.157-.121h.742c.114,0,.121.007.157.121l1.22,4.089h.271c.1,0,.121.021.121.121v.443C882.729,524.092,882.708,524.114,882.608,524.114Zm-1.913-3.183c-.036-.157-.064-.314-.093-.485-.021-.15-.057-.364-.078-.507-.079.507-.114.735-.178.992l-.314,1.228h.963Z" transform="translate(-822.48 -519.097)"/><path class="a" d="M926.936,523.864a2.085,2.085,0,0,1-1.242.25h-1.613c-.136,0-.15-.014-.15-.15v-.385c0-.128.021-.15.15-.15h.364V519.9h-.364c-.129,0-.15-.021-.15-.15v-.385c0-.129.014-.15.15-.15h1.634a2.775,2.775,0,0,1,.964.093c.756.25,1.113,1.013,1.113,2.348A2.383,2.383,0,0,1,926.936,523.864Zm-.557-3.7a.966.966,0,0,0-.707-.186H925.4v3.368h.271c.849,0,1.113-.407,1.113-1.7C926.787,520.838,926.665,520.389,926.38,520.167Z" transform="translate(-863.475 -519.097)"/><path class="a" d="M968.952,523.127q-1.745,0-1.741-2.591a2.764,2.764,0,0,1,.628-2.105,1.727,1.727,0,0,1,2.377.064,3.016,3.016,0,0,1,.528,2.005C970.744,522.242,970.137,523.127,968.952,523.127Zm.014-4.382c-.485,0-.749.642-.749,1.82,0,1.206.25,1.806.757,1.806s.764-.607.764-1.8C969.737,519.324,969.495,518.745,968.967,518.745Z" transform="translate(-902.482 -517.989)"/></g><g transform="translate(307.42 236.259)"><path class="a" d="M309.221,422.519v.972h1.749a.443.443,0,0,1,.454.453v.479a.435.435,0,0,1-.454.453h-1.749v1.075h2.734a.474.474,0,0,1,.492.479v.467a.474.474,0,0,1-.492.479H308.12a.7.7,0,0,1-.7-.7v-4.756a.83.83,0,0,1,.842-.829h3.68a.473.473,0,0,1,.492.479v.466a.474.474,0,0,1-.492.48Z" transform="translate(-307.42 -421.094)"/></g><g transform="translate(313.113 236.158)"><path class="a" d="M367.171,423.2a5.673,5.673,0,0,1-.169-.557h-.013c0,.155-.013.414-.026.557l-.156,2.76a.64.64,0,0,1-.687.6l-.492-.026a.562.562,0,0,1-.531-.661l.492-5.118a.684.684,0,0,1,.687-.648h.544a.748.748,0,0,1,.79.44l1.1,2.954h.026l1.153-2.954a.76.76,0,0,1,.894-.466l.57.065c.3.039.492.207.531.648l.479,5.092a.627.627,0,0,1-.609.661l-.441.013a.619.619,0,0,1-.674-.583l-.168-2.773c-.013-.143-.013-.389-.013-.557h-.013a3.53,3.53,0,0,1-.194.557l-.674,1.607a.7.7,0,0,1-.687.492h-.453a.669.669,0,0,1-.687-.466Z" transform="translate(-365.093 -420.065)"/></g><g transform="translate(321.341 236.116)"><path class="a" d="M450.752,424.069v1.5a.6.6,0,0,1-.648.57h-.48a.591.591,0,0,1-.635-.57v-5.066a.665.665,0,0,1,.492-.648,5.98,5.98,0,0,1,1.762-.207c1.633,0,3.175.441,3.175,2.125,0,.907-.441,2.307-3.11,2.307C451.128,424.082,450.921,424.082,450.752,424.069Zm0-2.967v1.568c.492.013.57.013.648.013.907,0,1.309-.285,1.309-.842,0-.518-.428-.79-1.257-.79A5.529,5.529,0,0,0,450.752,421.1Z" transform="translate(-448.99 -419.65)"/></g><g transform="translate(327.385 236.116)"><path class="a" d="M514.685,423.537l1.3,1.555a.535.535,0,0,1-.194.855l-.311.129a.838.838,0,0,1-1.063-.194l-1.425-2.021h-.765v1.71a.6.6,0,0,1-.648.57H511.1a.592.592,0,0,1-.635-.57v-5.066a.665.665,0,0,1,.492-.648,6.52,6.52,0,0,1,1.84-.207c1.633,0,3.123.428,3.123,2.047A1.963,1.963,0,0,1,514.685,423.537Zm-1.827-1.011c.8,0,1.348-.155,1.348-.829,0-.479-.466-.687-1.179-.687a7,7,0,0,0-.8.052v1.464Z" transform="translate(-510.461 -419.65)"/></g><g transform="translate(333.811 236.259)"><path class="a" d="M577.605,422.519v.972h1.749a.443.443,0,0,1,.454.453v.479a.435.435,0,0,1-.454.453h-1.749v1.075h2.734a.473.473,0,0,1,.492.479v.467a.473.473,0,0,1-.492.479H576.5a.7.7,0,0,1-.7-.7v-4.756a.83.83,0,0,1,.842-.829h3.68a.473.473,0,0,1,.492.479v.466a.474.474,0,0,1-.492.48Z" transform="translate(-575.804 -421.094)"/></g><g transform="translate(339.28 236.13)"><path class="a" d="M634.856,424.369a.431.431,0,0,0-.3-.376,5.406,5.406,0,0,0-1.011-.272,4.2,4.2,0,0,1-.985-.324,1.75,1.75,0,0,1-.972-1.633c0-1.386,1.244-1.982,2.579-1.982a5.427,5.427,0,0,1,1.9.337.542.542,0,0,1,.363.726l-.117.4c-.091.324-.415.441-.79.3a4.115,4.115,0,0,0-1.438-.285c-.492,0-.829.117-.829.415,0,.415.454.557,1.425.752a3.691,3.691,0,0,1,1.14.389,1.571,1.571,0,0,1,.8,1.451c0,1.529-1.244,2.06-2.773,2.06a4.624,4.624,0,0,1-2.112-.479.522.522,0,0,1-.259-.739l.194-.415c.13-.272.428-.35.79-.194a4.176,4.176,0,0,0,1.529.35C634.494,424.848,634.856,424.719,634.856,424.369Z" transform="translate(-631.419 -419.782)"/></g><g transform="translate(344.679 236.195)"><path class="a" d="M688.686,420.982a.8.8,0,0,1,.855-.544h.622a.771.771,0,0,1,.79.505l2.177,4.911a1.105,1.105,0,0,1,.078.4.533.533,0,0,1-.466.505l-.583.117a.624.624,0,0,1-.765-.363l-.3-.8h-2.7l-.3.752a.6.6,0,0,1-.765.4l-.622-.155c-.389-.091-.428-.518-.272-.855Zm.22,3.408h1.723l-.816-2.19H689.8Z" transform="translate(-686.359 -420.438)"/></g><g transform="translate(351.798 236.13)"><path class="a" d="M762.158,424.369a.431.431,0,0,0-.3-.376,5.4,5.4,0,0,0-1.01-.272,4.194,4.194,0,0,1-.985-.324,1.75,1.75,0,0,1-.972-1.633c0-1.386,1.244-1.982,2.579-1.982a5.428,5.428,0,0,1,1.9.337.541.541,0,0,1,.363.726l-.117.4c-.091.324-.415.441-.79.3a4.115,4.115,0,0,0-1.438-.285c-.492,0-.829.117-.829.415,0,.415.453.557,1.425.752a3.692,3.692,0,0,1,1.14.389,1.571,1.571,0,0,1,.8,1.451c0,1.529-1.244,2.06-2.773,2.06a4.624,4.624,0,0,1-2.112-.479.522.522,0,0,1-.259-.739l.194-.415c.13-.272.428-.35.79-.194a4.175,4.175,0,0,0,1.529.35C761.8,424.848,762.158,424.719,762.158,424.369Z" transform="translate(-758.72 -419.782)"/></g><g transform="translate(361.126 218.959)"><path class="a" d="M865.085,252.517a3.874,3.874,0,0,1-1.046,2.632,4.084,4.084,0,0,1-.713.57c-.372.241-.641.408-.491.811s.607.273,1.042.174c.14-.033,2.871-.687,2.905-.688a1.394,1.394,0,0,1,1.613,1.043l.221.923a1.4,1.4,0,0,1-.963,1.663c-.031.014-3.014.731-3.019.733-.567.145-.9.426-.9.972a1.271,1.271,0,0,0,.316.73s3.241,4.018,3.258,4.049a1.394,1.394,0,0,1-.245,1.906l-.737.6a1.394,1.394,0,0,1-1.916-.151c-.026-.022-2.039-2.5-2.252-2.759s-.482-.662-.855-.662-.641.4-.855.662-2.227,2.737-2.252,2.759a1.394,1.394,0,0,1-1.916.151l-.737-.6a1.4,1.4,0,0,1-.245-1.906c.016-.031,3.258-4.049,3.258-4.049a1.276,1.276,0,0,0,.316-.73c0-.546-.331-.827-.9-.972,0,0-2.988-.719-3.019-.733a1.4,1.4,0,0,1-.964-1.663c0-.008.221-.92.222-.923a1.393,1.393,0,0,1,1.613-1.043c.035,0,2.764.655,2.9.688.436.1.9.221,1.042-.174s-.119-.57-.491-.811a4.062,4.062,0,0,1-.713-.57,3.874,3.874,0,0,1-1.047-2.632,3.781,3.781,0,0,1,7.562,0" transform="translate(-853.953 -248.784)"/></g></g></svg>