<svg version="1.1" id="Layer_1" xmlns="http://www.w3.org/2000/svg" x="0" y="0" viewBox="0 0 320 320" xml:space="preserve"><style>.st0{fill:#609}.st1{fill:#8533ad}.st3{fill:#55057f}</style><path class="st0" d="M319.7 306.5H1.5L32.3 256c1.8-3 5-4.8 8.5-4.8h239.6c3.5 0 6.7 1.8 8.5 4.8l30.8 50.5z"/><path class="st1" d="M2.7 304.4l-1.2 2.1h318.2l-1.2-2.1z"/><path class="st0" d="M282.7 251.2H38.5c-1.8 0-3.3-1.5-3.3-3.3V94.5c0-1.8 1.5-3.3 3.3-3.3h244.2c1.8 0 3.3 1.5 3.3 3.3v153.4c0 1.8-1.5 3.3-3.3 3.3z"/><path class="st1" d="M274.5 241.2H46.7c-.7 0-1.2-.5-1.2-1.2V103.8c0-.7.5-1.2 1.2-1.2h227.9c.7 0 1.2.5 1.2 1.2V240c-.1.7-.6 1.2-1.3 1.2z"/><path d="M316.9 316.3H4.3c-1.6 0-2.8-1.3-2.8-2.8v-6.9h318.2v7c0 1.4-1.2 2.7-2.8 2.7z" fill="#321a4c"/><path class="st3" d="M292.7 279.5l-14.9-24.6H41.9L27 279.5zM187.6 300.9l-6.7-17.5h-42.1l-6.8 17.5z"/><circle class="st0" cx="161" cy="138.4" r="66.8"/><circle cx="161" cy="129.4" r="66.8" fill="#fadb4f"/><g><path d="M161 80.6c26.9 0 48.8 21.9 48.8 48.8s-21.9 48.8-48.8 48.8-48.8-21.9-48.8-48.8 21.9-48.8 48.8-48.8m0-18c-36.9 0-66.8 29.9-66.8 66.8s29.9 66.8 66.8 66.8 66.8-29.9 66.8-66.8-29.9-66.8-66.8-66.8z" fill="#eb3d7d"/></g><path fill="none" stroke="#eb3d7d" stroke-width="18" stroke-miterlimit="10" d="M115.4 173l90.8-90.8"/></svg>