<?xml version="1.0" encoding="utf-8"?>
<!-- Generator: Adobe Illustrator 23.0.4, SVG Export Plug-In . SVG Version: 6.00 Build 0)  -->
<svg version="1.1" id="Layer_1" xmlns="http://www.w3.org/2000/svg" xmlns:xlink="http://www.w3.org/1999/xlink" x="0px" y="0px"
	 viewBox="0 0 320 320" style="enable-background:new 0 0 320 320;" xml:space="preserve">
<style type="text/css">
	.st0{fill:#660099;}
	.st1{fill:#99CC33;}
	.st2{fill:#F4D7BA;}
	.st3{fill:#EDCCB8;}
	.st4{fill:#FF9900;}
	.st5{fill:#CC1F59;}
	.st6{fill:#EB3D7D;}
	.st7{fill:#FADB4F;}
</style>
<path class="st0" d="M4.2,277.1c0-70.2,39.7-75.8,83.7-76.9c40-1.1,57.5-2.8,79.5,4.8c41.1,14.1,42.5,42,41.1,80
	c-0.8,23.4-62,20.8-111,21.1C48.4,306.4,4.2,300.2,4.2,277.1z"/>
<path class="st1" d="M88.4,198l-6.2,1.7c0,0-12.1,9.3-0.8,22c10.1,11.3,40.6,14.4,56.1,0.6c5.1-4.5,6.2-10.1,5.9-13.8
	c-0.3-7.3-7-11.3-7-11.3L88.4,198z"/>
<path class="st2" d="M82.2,130.9c-0.3-1.7,52.7-21.4,51.8-5.6c-1.1,16.6-1.4,36.3,0.6,53.3c1.1,8.5,5.4,22.3,5.4,22.3
	c2.5,10.1-3.1,20.6-17.5,23.9c-21.7,4.8-35.5-2-40-7.6c-2.8-3.4-3.1-9-2.5-11.3c1.4-5.6,4.2-16.3,3.7-37.8
	C83.4,150.3,83.9,149.2,82.2,130.9z"/>
<path class="st3" d="M82.2,130.9c0.6,5.6,0.8,9.6,0.8,13c0.6,9.6,0.8,19.4,0.6,29c0,12.7-1.1,21.4-2.3,27c3.7-2,10.7-9.6,12.7-12.4
	c13.5-17.5,31.6-42.3,38.6-65.6C125.3,113.2,81.9,129.2,82.2,130.9z"/>
<path class="st2" d="M145.3,65.8C131.3,28.3,93.2,19.3,65,30.9C22.8,48.1,38.6,67.5,31,98.2c-3.4,16.3-11,22.5-4.8,25.9
	c3.1,1.7,7-0.3,9.6,1.7c1.7,1.4,9.6,37.2,12.7,40.3c5.6,5.6,18.6,5.1,25.6,4.2c15.2-1.7,30.4-5.9,43.1-13.8
	c18.3-11.3,29-29.9,31.8-50.4C150.7,92.6,150.1,78.8,145.3,65.8z"/>
<path class="st4" d="M35.2,20.5c-5.9,4.8-10.1,11-11.6,19.2c-2,12.7,7.9,23.9,16.9,31.6c5.6,4.8,26.8,11.6,15.8-3.4
	c9.3,1.7,18.6,2.3,27.9,1.4c1.7,0,2.8,1.1,3.4,2.5c5.6,16.1,6.5,18.6,6.2,27.6c-0.3,5.4-0.8,7,1.1,9.6c1.1,1.4,2.8,2,4.8,2
	c1.7,0,3.4-0.6,5.1-1.1c0.6-5.1,0.6-11.6,4.2-15.2c3.7-2.8,9-3.1,13-0.8c5.9,3.7,7,12.7,6.2,18.9c-0.8,5.4-2,10.4-2,15.8
	c0,2.8,1.1,7,2.5,9.6c0.3,0.6,0.6,1.4,0.8,2.3c1.1,2.8,4.2,4.8,7.3,3.9c1.1-0.3,2.5-0.6,3.1-0.6c5.9,0.3,10.7-10.7,13.5-14.9
	c4.5-6.8,8.5-14.4,11.3-22c6.2-15.2,9.3-31.8,9-48.2c-0.3-12.1-3.1-25.4-17.5-27c-0.6,0-1.4,0-2-0.3c-1.1-0.6-1.7-2.3-2-3.7
	c-2.8-11-14.7-15.8-24.8-18.3C104.5,3.3,80,3.6,56.9,9.8C49.5,12,41.7,15.1,35.2,20.5z"/>
<circle class="st5" cx="216.5" cy="247.5" r="68.5"/>
<circle class="st6" cx="216.5" cy="240.5" r="68.5"/>
<g>
	<path class="st7" d="M216.5,244c-7.9,0-14.7,2.9-20.6,7.9c-2,1.5-2,4.4,0,5.9l0.5,0.5c1.5,1.5,3.9,1.5,5.9,0
		c3.9-3.4,8.8-5.4,14.2-5.4c5.4,0,10.3,2,14.2,5.4c1.5,1.5,3.9,1.5,5.9,0l0.5-0.5c1.5-1.5,1.5-4.4,0-5.9
		C231.2,246.9,224.3,244,216.5,244z"/>
	<path class="st7" d="M216.5,223.4c-13.3,0-25.6,5.4-34.9,13.8c-2,1.5-2,4.4,0,5.9l0.5,0.5c1.5,1.5,3.9,1.5,5.4,0
		c7.4-6.9,17.7-11.3,29-11.3c11.3,0,21.1,4.4,29,11.3c1.5,1.5,3.9,1.5,5.4,0l0.5-0.5c1.5-1.5,1.5-4.4,0-5.9
		C242,228.8,229.7,223.4,216.5,223.4z"/>
	<path class="st7" d="M167.8,229.7c2,2,4.4,2,6.4,0.5c10.8-10.3,26-16.7,42.3-16.7s31,6.4,42.3,16.7c1.5,1.5,4.4,1.5,5.9,0l0.5-0.5
		c1.5-1.5,1.5-4.4,0-5.9c-12.8-11.8-29.5-19.2-48.2-19.2s-35.9,7.4-48.2,19.2C166.3,225.3,166.3,227.8,167.8,229.7z"/>
	<circle class="st7" cx="216.5" cy="274.5" r="7.9"/>
</g>
</svg>
