<svg version="1.1" id="Camada_1" xmlns="http://www.w3.org/2000/svg" x="0" y="0" viewBox="0 0 108 108" xml:space="preserve"><style>.st0{fill:#609}.st1{fill:#8533ad}</style><path class="st0" d="M41 3.8L5.7 10.6c-3 .6-5 3.5-4.5 6.6l16.1 84.6c.6 3 3.5 5 6.6 4.5l35.3-6.7c3-.6 5-3.5 4.5-6.6L47.6 8.3c-.7-3-3.6-5-6.6-4.5z"/><path class="st1" d="M43.9 3.2L8.6 9.9c-3 .6-5 3.5-4.5 6.6l16.1 84.6c.6 3 3.5 5 6.6 4.5l35.3-6.7c3-.6 5-3.5 4.5-6.6L50.4 7.6c-.6-3-3.5-5-6.5-4.4z"/><path class="st0" d="M58.6 50.7c-1.1-.9-2.7-1.1-4.1-.5-1.3.6-2.2 2-2.2 3.3-1-1.7-3.2-2.3-5-1.5-1.3.6-2.1 1.9-2.2 3.2l-3.7-7.9c-.9-1.9-3.3-2.9-5.3-2-2 .9-3 3.4-2.1 5.3 0 0 4.3 9 9.2 19.6l-4.9-3.6c-1.8-1-4.3-.9-5.6.8-1.3 1.8-1.1 4.2.7 5.5l13.4 10c5.7 4.3 13.4 5.2 18.6 3.3l-6.8-35.5z"/><path d="M43.8 5.6l-5.1 1c-.4.1-.8.6-.7 1.1l.2 1.3c.2 1-.4 1.9-1.5 2.1l-18.6 3.6c-1 .2-1.9-.4-2.1-1.5l-.2-1.2c-.1-.4-.6-.8-1.1-.7l-5.1 1c-2.1.4-3.6 2.6-3.2 4.7l15.9 83.2c.4 2.1 2.6 3.6 4.7 3.2L61.1 97c2.1-.4 3.6-2.6 3.2-4.7L48.5 8.8c-.4-2.2-2.5-3.6-4.7-3.2z" fill="#fab538"/><path d="M56.3 49.8c-.6 0-1.2.1-1.8.4-1.3.6-2.2 2-2.2 3.3-1-1.7-3.2-2.3-5-1.5-1.3.6-2.1 1.9-2.2 3.2l-3.7-7.9c-.9-1.9-3.3-2.9-5.3-2-2 .9-3 3.4-2.1 5.3 0 0 4.3 9 9.2 19.6l-4.9-3.6c-1.8-1-4.3-.9-5.6.8-1.3 1.8-1.1 4.2.7 5.5l13.4 10c5 3.7 11.4 4.9 16.4 3.9l-6.9-37z" fill="#eda541"/><path d="M61.8 44.4c-1.5.8-2.2 2.2-2.1 3.7-1.2-1.7-3.5-2.1-5.3-1-1.2.8-1.9 2.2-1.8 3.6-1.2-1.6-3.5-1.9-5.1-.9-1.2.8-1.9 2.1-1.8 3.5l-4.6-7.4c-1.1-1.8-3.6-2.5-5.5-1.3S33 48.2 34.1 50c0 0 5.4 8.4 11.5 18.4l-5.3-3c-1.9-.8-4.4-.3-5.5 1.5-1.1 1.9-.6 4.3 1.3 5.4l14.6 8.3c6.6 3.8 15 3.5 19.8.4 4.8-3 8.1-8.6 7.3-13.8-.6-3.2-1.6-6.2-4.1-10.3-4.1-6.6-6.7-10.7-6.7-10.7-1.1-1.9-3.3-2.7-5.2-1.8z" fill="#d83582"/><path d="M76.8 66.8c-.7-6.6-2.9-9.3-5-13-.6-.9-1.2-2-2-3.4-1.8-2.8-2.9-4.4-2.9-4.4-1.1-1.7-3.4-2.5-5.1-1.6-1.5.8-2.2 2.2-2.1 3.7-1.2-1.7-3.5-2.1-5.3-1-1.2.8-1.9 2.2-1.8 3.6-1.2-1.6-3.5-1.9-5.1-.9-1.2.8-1.9 2.1-1.8 3.5l-4.6-7.4c-1.1-1.8-3.6-2.5-5.5-1.3-.2.1-.4.3-.7.4 2.5 4.6 8.6 13.9 11.9 18.6 4.1 5.9 8.4 13.5 15.1 15.1 6.5 1.6 15.6-5.3 14.9-11.9z" fill="#eb3d7d"/><g><path class="st1" d="M34.1 41.9c-.4 0-.9-.3-1-.8l-3-8.6c-.2-.6.1-1.2.7-1.5s1.2.1 1.5.7l3 8.6c.2.6-.1 1.2-.7 1.5-.2.1-.3.1-.5.1zm-4 5.7c-.1 0-.1 0 0 0l-7-.6c-.6-.1-1.1-.6-1-1.2.1-.6.6-1.1 1.2-1l6.9.7c.6.1 1.1.6 1 1.2-.1.5-.5.9-1.1.9zM29 59.2c-.2 0-.4-.1-.6-.2-.6-.3-.7-1-.3-1.6l2.9-4.5c.3-.6 1-.7 1.6-.3.6.3.7 1 .3 1.6L30 58.6c-.2.4-.6.6-1 .6zm11.4-16.7c-.2 0-.4-.1-.7-.2-.4-.3-.6-1.1-.1-1.6l3.4-4.1c.3-.4 1.1-.6 1.6-.1.4.4.6 1.1.1 1.6l-3.4 4.1c-.2.2-.5.3-.9.3z"/></g></svg>